<?xml version="1.0" encoding="UTF-8" standalone="no"?>
<!-- Created with Inkscape (http://www.inkscape.org/) -->

<svg
   width="95.25mm"
   height="57.150002mm"
   viewBox="0 0 95.250001 57.150001"
   version="1.1"
   id="svg1"
   inkscape:version="1.4.2 (ebf0e940, 2025-05-08)"
   sodipodi:docname="Business Card 3 - Draft 5.svg"
   xml:space="preserve"
   inkscape:export-filename="Business Card 3 - Draft 1.png"
   inkscape:export-xdpi="1200"
   inkscape:export-ydpi="1200"
   xmlns:inkscape="http://www.inkscape.org/namespaces/inkscape"
   xmlns:sodipodi="http://sodipodi.sourceforge.net/DTD/sodipodi-0.dtd"
   xmlns="http://www.w3.org/2000/svg"
   xmlns:svg="http://www.w3.org/2000/svg"><sodipodi:namedview
     id="namedview1"
     pagecolor="#ffffff"
     bordercolor="#000000"
     borderopacity="0.25"
     inkscape:showpageshadow="2"
     inkscape:pageopacity="0.0"
     inkscape:pagecheckerboard="0"
     inkscape:deskcolor="#d1d1d1"
     inkscape:document-units="mm"
     inkscape:zoom="2.0089252"
     inkscape:cx="94.329049"
     inkscape:cy="119.71576"
     inkscape:window-width="1728"
     inkscape:window-height="966"
     inkscape:window-x="0"
     inkscape:window-y="38"
     inkscape:window-maximized="1"
     inkscape:current-layer="layer1"
     showguides="false" /><defs
     id="defs1"><linearGradient
       id="swatch1"
       inkscape:swatch="solid"><stop
         style="stop-color:#000000;stop-opacity:1;"
         offset="0"
         id="stop1" /></linearGradient><inkscape:path-effect
       effect="fillet_chamfer"
       id="path-effect17"
       is_visible="true"
       lpeversion="1"
       nodesatellites_param="F,0,0,1,0,0,0,1 @ F,0,0,1,0,0,0,1 @ F,0,0,1,0,0,0,1 @ F,0,0,1,0,0,0,1 @ F,0,0,1,0,0,0,1 @ F,0,0,1,0,0,0,1 @ F,0,0,1,0,0,0,1 @ F,0,0,1,0,0,0,1"
       radius="0"
       unit="px"
       method="auto"
       mode="F"
       chamfer_steps="1"
       flexible="false"
       use_knot_distance="true"
       apply_no_radius="true"
       apply_with_radius="true"
       only_selected="false"
       hide_knots="false" /><inkscape:path-effect
       effect="fillet_chamfer"
       id="path-effect17-9"
       is_visible="true"
       lpeversion="1"
       nodesatellites_param="F,0,0,1,0,0,0,1 @ F,0,0,1,0,0,0,1 @ F,0,0,1,0,0,0,1 @ F,0,0,1,0,0,0,1 @ F,0,0,1,0,0,0,1 @ F,0,0,1,0,0,0,1 @ F,0,0,1,0,0,0,1 @ F,0,0,1,0,0,0,1"
       radius="0"
       unit="px"
       method="auto"
       mode="F"
       chamfer_steps="1"
       flexible="false"
       use_knot_distance="true"
       apply_no_radius="true"
       apply_with_radius="true"
       only_selected="false"
       hide_knots="false" /></defs><g
     inkscape:groupmode="layer"
     id="layer2"
     inkscape:label="Layer 2"
     style="display:none"><rect
       style="fill:#0b00fd;fill-opacity:1;stroke:none;stroke-width:0.520154;stroke-dasharray:0.520154, 0.520154;stroke-dashoffset:0;stroke-opacity:1"
       id="rect12"
       width="6.3367834"
       height="3.2598758"
       x="12.188911"
       y="36.787113" /><rect
       style="fill:#0b00fd;fill-opacity:1;stroke:none;stroke-width:0.520154;stroke-dasharray:0.520154, 0.520154;stroke-dashoffset:0;stroke-opacity:1"
       id="rect12-6"
       width="6.3367834"
       height="3.2598758"
       x="12.188911"
       y="41.225002" /><rect
       style="fill:#fd0000;fill-opacity:1;stroke:none;stroke-width:0.655951;stroke-dasharray:0.655951, 0.655951;stroke-dashoffset:0;stroke-opacity:1"
       id="rect13"
       width="6.3367839"
       height="1.1780128"
       x="12.188911"
       y="40.046989" /><rect
       style="fill:#0b00fd;fill-opacity:1;stroke:none;stroke-width:0.520154;stroke-dasharray:0.520154, 0.520154;stroke-dashoffset:0;stroke-opacity:1"
       id="rect12-6-7"
       width="6.3367834"
       height="3.2598758"
       x="12.188911"
       y="45.662891" /><rect
       style="fill:#fd0000;fill-opacity:1;stroke:none;stroke-width:0.655951;stroke-dasharray:0.655951, 0.655951;stroke-dashoffset:0;stroke-opacity:1"
       id="rect13-9"
       width="6.3367839"
       height="1.1780128"
       x="12.188911"
       y="44.484879" /></g><g
     inkscape:label="Layer 1"
     inkscape:groupmode="layer"
     id="layer1"><rect
       style="fill:#1a3729;stroke-width:0.264583;fill-opacity:1"
       id="rect3"
       width="95.25"
       height="57.149998"
       x="0"
       y="0" /><text
       xml:space="preserve"
       style="font-style:normal;font-variant:normal;font-weight:normal;font-stretch:normal;font-size:2.82222px;font-family:'imes New Roman';-inkscape-font-specification:'imes New Roman, ';text-align:start;writing-mode:lr-tb;direction:ltr;text-anchor:start;fill:#ffffff;fill-opacity:1;stroke:none;stroke-width:0.493618;stroke-dasharray:0.493618, 0.493618;stroke-dashoffset:0;stroke-opacity:0.644788"
       x="17.326633"
       y="38.898403"
       id="text2-3-9-4"><tspan
         sodipodi:role="line"
         id="tspan2-7-4-7"
         style="font-style:normal;font-variant:normal;font-weight:normal;font-stretch:normal;font-size:2.82222px;font-family:Arial;-inkscape-font-specification:Arial;fill:#ffffff;fill-opacity:1;stroke:none;stroke-width:0.493618"
         x="17.326633"
         y="38.898403">(519) 500-3001</tspan><tspan
         sodipodi:role="line"
         style="font-style:normal;font-variant:normal;font-weight:normal;font-stretch:normal;font-size:2.82222px;font-family:Arial;-inkscape-font-specification:Arial;fill:#ffffff;fill-opacity:1;stroke:none;stroke-width:0.493618"
         x="17.326633"
         y="42.458847"
         id="tspan8">joshua@dumarealty.ca</tspan><tspan
         sodipodi:role="line"
         style="font-style:normal;font-variant:normal;font-weight:normal;font-stretch:normal;font-size:2.82222px;font-family:Arial;-inkscape-font-specification:Arial;fill:#ffffff;fill-opacity:1;stroke:none;stroke-width:0.493618"
         x="17.326633"
         y="46.019291"
         id="tspan9">www.dumareatly.ca</tspan></text><text
       xml:space="preserve"
       style="font-style:normal;font-variant:normal;font-weight:normal;font-stretch:normal;font-size:4.93889px;font-family:'imes New Roman';-inkscape-font-specification:'imes New Roman, ';text-align:start;writing-mode:lr-tb;direction:ltr;text-anchor:start;fill:#ffffff;fill-opacity:1;stroke:none;stroke-width:0.988693;stroke-dasharray:0.988693, 0.988693;stroke-dashoffset:0;stroke-opacity:0.644788"
       x="11.837223"
       y="14.546253"
       id="text2"><tspan
         sodipodi:role="line"
         id="tspan2"
         style="font-style:normal;font-variant:normal;font-weight:bold;font-stretch:normal;font-size:4.93889px;font-family:Arial;-inkscape-font-specification:'Arial Bold';fill:#ffffff;fill-opacity:1;stroke:none;stroke-width:0.988692"
         x="11.837223"
         y="14.546253">Duma Realty Inc.</tspan></text><text
       xml:space="preserve"
       style="font-style:normal;font-variant:normal;font-weight:normal;font-stretch:normal;font-size:4.23333px;font-family:'imes New Roman';-inkscape-font-specification:'imes New Roman, ';text-align:start;writing-mode:lr-tb;direction:ltr;text-anchor:start;fill:#ffffff;fill-opacity:1;stroke:none;stroke-width:0.724107;stroke-dasharray:0.724107, 0.724107;stroke-dashoffset:0;stroke-opacity:0.644788"
       x="12.121788"
       y="26.852526"
       id="text2-3"><tspan
         sodipodi:role="line"
         id="tspan2-7"
         style="font-style:normal;font-variant:normal;font-weight:bold;font-stretch:normal;font-size:4.23333px;font-family:Arial;-inkscape-font-specification:'Arial Bold';fill:#ffffff;fill-opacity:1;stroke:none;stroke-width:0.724107"
         x="12.121788"
         y="26.852526">Joshua Duma</tspan></text><text
       xml:space="preserve"
       style="font-style:normal;font-variant:normal;font-weight:normal;font-stretch:normal;font-size:2.82222px;font-family:'imes New Roman';-inkscape-font-specification:'imes New Roman, ';text-align:start;writing-mode:lr-tb;direction:ltr;text-anchor:start;fill:#ffffff;fill-opacity:1;stroke:none;stroke-width:0.51412;stroke-dasharray:0.51412, 0.51412;stroke-dashoffset:0;stroke-opacity:0.644788"
       x="11.987429"
       y="30.613661"
       id="text2-3-9"><tspan
         sodipodi:role="line"
         id="tspan2-7-4"
         style="font-style:normal;font-variant:normal;font-weight:normal;font-stretch:normal;font-size:2.82222px;font-family:Arial;-inkscape-font-specification:Arial;fill:#ffffff;fill-opacity:1;stroke:none;stroke-width:0.51412"
         x="11.987429"
         y="30.613661">Broker of Record</tspan></text><text
       xml:space="preserve"
       style="font-style:normal;font-variant:normal;font-weight:normal;font-stretch:normal;font-size:3.175px;font-family:'imes New Roman';-inkscape-font-specification:'imes New Roman, ';text-align:start;writing-mode:lr-tb;direction:ltr;text-anchor:start;fill:#ffffff;fill-opacity:1;stroke:none;stroke-width:0.439807;stroke-dasharray:0.439807, 0.439807;stroke-dashoffset:0;stroke-opacity:0.644788"
       x="11.961627"
       y="18.472191"
       id="text2-6"><tspan
         sodipodi:role="line"
         id="tspan2-4"
         style="font-style:normal;font-variant:normal;font-weight:normal;font-stretch:normal;font-size:3.175px;font-family:Arial;-inkscape-font-specification:Arial;fill:#ffffff;fill-opacity:1;stroke:none;stroke-width:0.439806"
         x="11.961627"
         y="18.472191">Brokerage</tspan></text><text
       xml:space="preserve"
       style="font-style:normal;font-variant:normal;font-weight:normal;font-stretch:normal;font-size:3.175px;font-family:'Times New Roman';-inkscape-font-specification:'Times New Roman, ';text-align:start;writing-mode:lr-tb;direction:ltr;text-anchor:start;fill:#221c1d;fill-opacity:1;stroke:none;stroke-width:0.455001;stroke-dasharray:0.455001, 0.455001;stroke-dashoffset:0;stroke-opacity:0.644788"
       x="15.922587"
       y="-33.301865"
       id="text4"><tspan
         sodipodi:role="line"
         id="tspan4"
         style="stroke-width:0.455"
         x="15.922587"
         y="-33.301865">s</tspan></text><rect
       style="display:none;fill:none;stroke:#000000;stroke-width:0.455;stroke-dasharray:0.455, 0.455;stroke-dashoffset:0;stroke-opacity:0.644788"
       id="rect1"
       width="88.900002"
       height="50.799999"
       x="3.175"
       y="3.175" /><rect
       style="fill:#ffffff;fill-opacity:1;stroke:none;stroke-width:0.421092;stroke-dasharray:0.421092, 0.421092;stroke-dashoffset:0;stroke-opacity:0.644788"
       id="rect7"
       width="27.478252"
       height="0.35400188"
       x="12.208139"
       y="33.339642" /><text
       xml:space="preserve"
       style="font-style:normal;font-variant:normal;font-weight:bold;font-stretch:normal;font-size:3.175px;font-family:Arial;-inkscape-font-specification:'Arial Bold';text-align:start;writing-mode:lr-tb;direction:ltr;text-anchor:start;fill:#ffffff;fill-opacity:1;stroke:none;stroke-width:0.455001;stroke-dasharray:0.455001, 0.455001;stroke-dashoffset:0;stroke-opacity:0.644788"
       x="-8.7430649"
       y="33.564476"
       id="text7"><tspan
         sodipodi:role="line"
         id="tspan7"
         style="stroke-width:0.455"
         x="-8.7430649"
         y="33.564476" /></text><path
       style="display:inline;fill:#ffffff;fill-opacity:1;stroke:#ffffff;stroke-width:0.920001;stroke-opacity:1"
       id="rect17"
       width="26.46883"
       height="26.46883"
       x="27.86824"
       y="234.1078"
       sodipodi:type="rect"
       ry="3.7130611"
       transform="matrix(0.79071567,0,0,0.79071567,38.285804,-168.48225)"
       d="m 31.581301,234.1078 h 19.042708 c 2.057036,0 3.713061,1.65603 3.713061,3.71306 v 19.04271 c 0,2.05704 -1.656025,3.71306 -3.713061,3.71306 H 31.581301 c -2.057035,0 -3.713061,-1.65602 -3.713061,-3.71306 v -19.04271 c 0,-2.05703 1.656026,-3.71306 3.713061,-3.71306 z"
       inkscape:path-effect="#path-effect17" /><text
       xml:space="preserve"
       style="font-style:normal;font-variant:normal;font-weight:800;font-stretch:normal;font-size:1.76389px;line-height:1.2;font-family:Montserrat;-inkscape-font-specification:'Montserrat Ultra-Bold';text-align:center;letter-spacing:0.302774px;writing-mode:lr-tb;direction:ltr;text-anchor:middle;fill:#ffffff;fill-opacity:1;stroke-width:0.0126025"
       x="74.584"
       y="13.982223"
       id="text8-3-6-0-8"
       transform="scale(0.94869522,1.0540793)"><tspan
         sodipodi:role="line"
         style="font-style:normal;font-variant:normal;font-weight:bold;font-stretch:normal;font-size:1.76389px;font-family:Arial;-inkscape-font-specification:'Arial Bold';text-align:center;text-anchor:middle;fill:#ffffff;fill-opacity:1;stroke-width:0.0126025"
         x="74.73539"
         y="13.982223"
         id="tspan13-0-6-3">Website</tspan></text><path
       style="display:inline;fill:#000000;fill-opacity:1;stroke-width:0.188922"
       d="M 62.538644,33.593335 V 31.84382 h 1.749515 1.749515 v 1.749515 1.749514 h -1.749515 -1.749515 z m 2.999171,0 v -1.249648 h -1.249656 -1.249647 v 1.249648 1.249655 h 1.249647 1.249656 z m -1.999445,0 v -0.749788 h 0.749789 0.749788 v 0.749788 0.749787 H 64.288159 63.53837 Z m 3.499022,0.999717 v -0.749789 h -0.249929 -0.249931 v -0.499858 -0.499858 h 0.249931 0.249929 V 32.593615 32.343687 H 66.787463 66.537532 V 31.84382 31.343969 H 64.53809 62.538644 v -0.999726 -0.999728 h 0.249939 0.249929 v 0.749798 0.749788 h 0.249929 0.249929 v -0.499858 -0.499869 h 0.249931 0.24993 v -0.499859 -0.499848 h -0.24993 -0.249931 v -0.249939 -0.24993 h 0.249931 0.24993 v -0.24993 -0.249929 h -0.24993 -0.249931 v -0.249928 -0.24993 h -0.249929 -0.249929 v 0.749787 0.749799 h -0.249929 -0.249939 v -0.999728 -0.999726 h 0.499868 0.499858 v -0.249921 -0.249938 h -0.249929 -0.249929 v -0.499859 -0.499858 h -0.249929 -0.249939 v -0.249931 -0.249928 h 0.249939 0.249929 V 24.345919 23.84606 h -0.249929 -0.249939 v -0.24993 -0.249938 h 0.249939 0.249929 v 0.249938 0.24993 h 0.499858 0.499861 v -0.499868 -0.499859 h 0.499859 0.499857 v 0.249929 0.24993 h 0.249929 0.249939 v -0.24993 -0.249929 h 0.499859 0.499858 v 0.249929 0.24993 h 0.49986 0.499859 v 0.249938 0.24993 h 0.499857 0.499869 v -0.24993 -0.249938 h -0.249938 -0.249931 v -0.24993 -0.249929 h 0.249931 0.249938 v 0.249929 0.24993 h 0.249929 0.249931 v 0.249938 0.24993 h 0.249928 0.24993 v -0.24993 -0.249938 h 0.249929 0.24993 v -0.24993 -0.249929 h -0.499859 -0.499858 v -0.24993 -0.249929 h -0.249931 -0.249929 v -0.24993 -0.249927 h -0.249938 -0.249931 v 0.249927 0.24993 h -0.249929 -0.249928 v -0.499857 -0.49986 h -0.24993 -0.249929 v -0.24993 -0.249929 h -0.249929 -0.249931 v -0.499857 -0.49987 h 0.749789 0.749787 v -0.499859 -0.499867 h 0.999729 0.999717 v 0.499867 0.499859 h 1.249656 1.249648 v -0.249929 -0.24993 H 72.035999 71.53613 v -0.249929 -0.249938 h 1.249656 1.249648 v 0.249938 0.249929 h -0.499859 -0.499859 v 0.24993 0.249929 h 0.249929 0.24993 v 0.749797 0.749789 h 0.249928 0.249931 v -0.749789 -0.749797 h 0.249938 0.249929 v -0.499859 -0.499867 h 0.249931 0.249928 v 0.749797 0.749799 h -0.249928 -0.249931 v 0.249927 0.24993 h 0.249931 0.249928 v 0.249929 0.24993 h -0.249928 -0.249931 v 0.249928 0.249932 h 0.249931 0.249928 v 0.749786 0.749789 h 0.249929 0.24993 v 0.249938 0.24993 h 0.249929 0.249929 v -0.24993 -0.249938 h 0.499859 0.499859 v -0.24993 -0.249929 h 0.499869 0.499858 v 0.249929 0.24993 h 0.249928 0.249931 v 0.249938 0.24993 h 0.249929 0.24993 v 0.249929 0.24993 h -0.499859 -0.499859 v 0.24993 0.249929 h -0.249929 -0.249929 v 0.499859 0.499858 h 0.249929 0.249929 v -0.24993 -0.249928 h 0.249928 0.249931 v -0.249931 -0.249928 h 0.249929 0.24993 v 0.249928 0.249931 h -0.24993 -0.249929 v 0.249928 0.24993 H 78.28425 78.034322 v 0.499859 0.499859 h 0.249928 0.249931 v -0.249921 -0.249938 h 0.249929 0.24993 v 0.249938 0.249921 h -0.24993 -0.249929 v 0.249929 0.249939 h 0.249929 0.24993 v 0.749787 0.749799 h -0.74979 -0.749786 v 0.249921 0.249927 h 0.499858 0.499859 v 0.249938 0.249921 h 0.249929 0.24993 v 0.249939 0.24993 h -0.499859 -0.499859 v 0.24993 0.249928 h -0.249929 -0.249929 v 0.499868 0.499851 h -0.249939 -0.24993 v 0.249938 0.249929 h 0.749798 0.749788 v 0.749789 0.749787 h 0.249929 0.24993 v 0.499859 0.499868 h -0.499859 -0.499859 v 0.249921 0.249938 H 77.784393 77.534464 V 34.84299 34.343122 h 0.249929 0.249929 v -0.24993 -0.249929 h -0.499858 -0.499869 v 0.249929 0.24993 h -0.24993 -0.249929 v -0.24993 -0.249929 h -0.249929 -0.24993 v -0.249928 -0.24993 h -0.249929 -0.249929 v 0.24993 0.249928 h -0.24993 -0.249929 v -0.249928 -0.24993 h -0.499859 -0.499867 v -0.499858 -0.49986 h -0.499859 -0.499859 v 0.249928 0.249932 h 0.249929 0.24993 v 0.499858 0.499858 h 0.249928 0.249931 v 0.499859 0.499868 h 0.499867 0.499859 v -0.249938 -0.24993 h 0.499859 0.499858 v 0.499868 0.499859 H 75.03516 74.035434 V 35.092911 34.84299 h -0.249931 -0.249928 v -0.499868 -0.499859 h -0.24993 -0.249929 v -0.499858 -0.499858 h -0.24993 -0.249928 v 0.249929 0.249929 h -0.249931 -0.249928 v 0.24993 0.249928 H 71.786068 71.53613 v 0.249929 0.24993 h 0.749797 0.749789 v 0.24993 0.249938 h -0.24993 -0.249928 v 0.249921 0.249938 H 72.035999 71.53613 V 34.84299 34.343122 h -0.24992 -0.249938 v 0.499868 0.499859 h -0.74979 -0.749787 V 35.092911 34.84299 h 0.499859 0.499859 v -0.249938 -0.24993 h -0.749789 -0.749787 v 0.499868 0.499859 h -0.49986 -0.499869 V 35.092911 34.84299 h -0.249929 -0.249928 v 0.249921 0.249938 h -0.24993 -0.249929 z m 1.499585,0 v -0.24993 h 0.249929 0.249931 v -0.24993 -0.249929 h -0.749798 -0.749788 v -0.499858 -0.499858 h 0.749788 0.749798 v 0.249929 0.249929 h 0.249928 0.24993 v 0.24993 0.249928 h 0.249929 0.24993 v -0.249928 -0.24993 h -0.24993 -0.249929 v -1.249647 -1.249657 h 0.499859 0.499859 v 0.24993 0.249938 h -0.249931 -0.249928 v 0.499851 0.499867 h 0.249928 0.249931 V 31.84382 31.343969 h 0.249928 0.249931 v -0.249938 -0.24993 h 0.499858 0.499869 v -0.249928 -0.24993 h 0.249928 0.249931 v -0.74979 -0.749786 h -0.249931 -0.249928 v -0.249939 -0.24993 h 0.499859 0.499858 v 1.249655 1.249648 h -0.24993 -0.249928 v 0.24993 0.249938 h -0.249931 -0.249928 v 0.249921 0.24993 H 71.53613 71.036272 v 0.499867 0.49986 h 0.249938 0.24992 v 0.249929 0.249929 h 0.249938 0.249931 v -0.249929 -0.249929 h 0.249928 0.249931 V 32.593615 32.343687 H 72.285927 72.035999 V 32.093758 31.84382 h 1.249646 1.249656 v -0.499851 -0.499868 h 0.749788 0.749788 v -0.249928 -0.24993 h 0.24993 0.249929 v 0.24993 0.249928 h 0.499859 0.499869 v -0.499858 -0.499869 h -0.749799 -0.749788 v 0.249939 0.24993 h -0.249929 -0.249929 v -0.24993 -0.249939 h -0.24993 -0.249929 v -0.249921 -0.249938 h -0.249928 -0.249931 v -0.249927 -0.249921 h -0.249929 -0.249938 v -0.499869 -0.499859 h 0.249938 0.249929 v 0.249929 0.24993 h 0.249931 0.249928 v 0.24993 0.249939 h 0.249929 0.24993 v 0.249921 0.249927 h 0.249929 0.249929 v -0.249927 -0.249921 h 0.24993 0.249929 v 0.249921 0.249927 h 0.249929 0.24993 v -0.749787 -0.749789 h -0.499859 -0.499859 v 0.499859 0.499869 h -0.249929 -0.249929 v -0.249939 -0.24993 h -0.24993 -0.249929 v -0.24993 -0.249929 h 0.249929 0.24993 v -0.499858 -0.499868 h -0.24993 -0.249929 v -0.499859 -0.499859 h 0.249929 0.24993 v 0.24993 0.249929 h 0.249929 0.249929 v -0.499859 -0.499858 h -0.249929 -0.249929 v -0.249931 -0.249928 h 0.249929 0.249929 v -0.249929 -0.24993 h -0.249929 -0.249929 v -0.24993 -0.249929 h -0.24993 -0.249929 v -0.24993 -0.249938 h -0.249928 -0.249931 v -0.749789 -0.749786 h -0.249929 -0.249938 v 0.499857 0.499859 h -0.249931 -0.249928 v -0.749789 -0.749787 h -0.24993 -0.249929 v 0.999717 0.999718 h -0.24993 -0.249928 v -0.24993 -0.249929 h -0.249931 -0.249928 v 0.249929 0.24993 H 71.786068 71.53613 v -0.24993 -0.249929 h -0.24992 -0.249938 v -0.24993 -0.249929 h 0.249938 0.24992 v -0.24993 -0.249927 h -0.24992 -0.249938 v -0.74979 -0.749786 h -0.249931 -0.249928 v 0.499857 0.499859 h -0.499859 -0.499859 v 0.249928 0.249932 h -0.24993 -0.249928 v -0.999719 -0.999727 h -0.249931 -0.249929 v 0.249939 0.249931 h -0.249938 -0.249931 v 0.249927 0.24993 h -0.249929 -0.249928 v 0.249929 0.24993 h 0.499857 0.499869 v 0.249928 0.249932 h 0.249929 0.249931 v 0.249927 0.24993 h 0.249928 0.24993 v -0.24993 -0.249927 h 0.249929 0.24993 v 0.249927 0.24993 h 0.249928 0.249931 v 0.249929 0.24993 h 0.249928 0.249931 v 0.249929 0.24993 h -0.499859 -0.499859 v 0.249938 0.24993 h -0.24993 -0.249929 v 0.249929 0.24993 h -0.24993 -0.249928 v -0.24993 -0.249929 h -0.249931 -0.249929 v 0.499859 0.499859 h -0.499869 -0.499857 v 0.249928 0.249931 h 0.249928 0.249929 v 0.249928 0.24993 h -0.249929 -0.249928 v 0.749797 0.749789 h 0.249928 0.249929 v 0.24993 0.249928 h -0.499857 -0.499859 v 0.249929 0.24993 h -0.249929 -0.249931 v 0.74979 0.749786 h 0.249931 0.249929 v 0.249939 0.24993 h -0.249929 -0.249931 v 0.24993 0.249928 h 0.49986 0.499859 v -0.249928 -0.24993 h 0.499857 0.499869 v 0.24993 0.249928 h 0.249929 0.249931 v 0.24993 0.249938 h -0.249931 -0.249929 v 0.249921 0.24993 h 0.249929 0.249931 v 0.249938 0.249929 h -0.49986 -0.499869 V 32.093758 31.84382 h -0.249929 -0.249928 v -0.24993 -0.249921 h -0.24993 -0.249929 v 0.249921 0.24993 h 0.249929 0.24993 v 0.499867 0.49986 h -0.24993 -0.249929 v 0.499858 0.499858 h 0.249929 0.24993 v 0.249929 0.24993 h 0.249928 0.249929 v 0.24993 0.249938 h 0.249931 0.249938 z m 0.49986,-4.248809 v -0.499869 h -0.249931 -0.249929 v -0.249921 -0.249938 h -0.249938 -0.249931 v 0.249938 0.249921 h -0.249929 -0.249928 v -0.249921 -0.249938 h -0.24993 -0.249929 v -0.499848 -0.499869 h 0.499859 0.499857 v -0.24993 -0.249929 h 0.249931 0.249938 v -0.249928 -0.24993 h -0.249938 -0.249931 v -0.249939 -0.249929 h 0.249931 0.249938 v -0.499859 -0.499859 h 0.49986 0.499858 v -0.24993 -0.249928 h -0.24993 -0.249928 v -0.249931 -0.249928 h 0.249928 0.24993 v 0.249928 0.249931 h 0.499859 0.499859 v -0.249931 -0.249928 h 0.249928 0.249931 v 0.249928 0.249931 h -0.249931 -0.249928 v 0.249928 0.24993 h 0.249928 0.249931 v 0.24993 0.249929 h -0.499859 -0.499859 v 0.249938 0.249921 h -0.24993 -0.249929 v -0.249921 -0.249938 h -0.24993 -0.249928 v 0.249938 0.249921 h -0.249931 -0.249929 v 0.249929 0.249939 h 0.49986 0.499858 v 0.24993 0.249928 h -0.499858 -0.49986 v 0.249929 0.24993 h 0.999718 0.999718 v -0.24993 -0.249929 h -0.249931 -0.249928 v -0.249928 -0.24993 h 0.499859 0.499859 v 0.499858 0.499859 h 0.249938 0.24992 v 0.24993 0.249939 h 0.249938 0.249931 v 0.499848 0.499859 H 71.786068 71.53613 v 0.249939 0.24993 h -0.24992 -0.249938 v 0.24993 0.249928 h -0.249931 -0.249928 v -0.499858 -0.499869 h -0.249931 -0.249928 v 0.249939 0.24993 h -0.24993 -0.249929 v 0.24993 0.249928 h -0.24993 -0.249928 z m 0.499858,-0.74979 v -0.249938 h 0.749787 0.74979 v -0.499848 -0.499869 h -0.249931 -0.249928 v 0.24993 0.249939 h -0.749789 -0.749787 v 0.499848 0.499859 h 0.249928 0.24993 z m 0.499859,-3.499028 v -0.24993 h -0.24993 -0.249929 v 0.24993 0.249929 h 0.249929 0.24993 z m 3.499021,4.498748 v -0.24993 h 0.249928 0.249931 v 0.24993 0.249928 h -0.249931 -0.249928 z m 0.999726,-0.49986 v -0.249939 h 0.249931 0.249928 v 0.249939 0.24993 h -0.249928 -0.249931 z m -1.499585,-1.999445 v -0.249929 h -0.499858 -0.499859 v -0.249928 -0.24993 h 0.249928 0.249931 V 27.095142 26.845213 H 72.285927 72.035999 V 26.345354 25.845495 H 71.786068 71.53613 v -0.499858 -0.499859 h 0.249938 0.249931 v -0.249929 -0.24993 H 71.28621 70.536413 v -0.24993 -0.249929 h 1.249655 1.249648 v -0.24993 -0.249938 h 0.249929 0.24993 v 0.249938 0.24993 h 0.249928 0.249931 v -0.24993 -0.249938 h 0.249938 0.249929 v 0.499868 0.499859 h 0.499859 0.499859 v 0.24993 0.249929 h -0.24993 -0.249929 v 0.249928 0.249931 h -0.249928 -0.249931 v 0.249928 0.24993 h -0.249929 -0.249938 v -0.499858 -0.499859 h -0.249931 -0.249928 v 0.499859 0.499858 h -0.499859 -0.499858 v 0.24993 0.249929 h 0.249928 0.24993 v 0.499859 0.499868 h 0.499859 0.499859 v -0.249939 -0.249929 h 0.249938 0.249929 v 0.249929 0.249939 h 0.249931 0.249928 v 0.24993 0.249928 h -0.249928 -0.249931 v -0.249928 -0.24993 h -0.249929 -0.249938 v 0.24993 0.249928 h -0.249931 -0.249928 v 0.249929 0.24993 h -0.24993 -0.249929 z m -0.499858,-2.499303 v -0.249928 h -0.249931 -0.249928 v 0.249928 0.24993 h 0.249928 0.249931 z m 1.999443,-0.999716 v -0.24993 h -0.249929 -0.249938 v 0.24993 0.249929 h 0.249938 0.249929 z m -0.999726,-0.49986 V 23.84606 h -0.24993 -0.249929 v 0.249929 0.24993 h 0.249929 0.24993 z m -2.999162,-1.999445 v -0.249927 h 0.249928 0.249931 v 0.249927 0.24993 h -0.249931 -0.249928 z m 0.499859,11.746719 v -0.499858 h -0.249931 -0.249928 v 0.499858 0.499859 h 0.249928 0.249931 z m 5.998323,-0.249928 v -0.24993 h -0.24993 -0.249929 v 0.24993 0.249928 h 0.249929 0.24993 z m 0.999727,-0.499859 v -0.249929 h -0.249929 -0.249929 v 0.249929 0.249929 h 0.249929 0.249929 z M 76.534736,32.093758 V 31.343969 H 75.784948 75.03516 v 0.749789 0.749789 h 0.749788 0.749788 z m -0.999717,0 V 31.84382 h 0.249929 0.249929 v 0.249938 0.249929 H 75.784948 75.535019 Z M 64.53809,30.594173 v -0.24993 h 0.249927 0.24993 v -0.74979 -0.749786 h -0.24993 -0.249927 v 0.749786 0.74979 h -0.249931 -0.249928 v 0.24993 0.249928 h 0.249928 0.249931 z m 1.499584,0 v -0.24993 h -0.249929 -0.24993 v 0.24993 0.249928 h 0.24993 0.249929 z m 0,-0.99972 v -0.249938 h -0.249929 -0.24993 v 0.249938 0.249921 h 0.24993 0.249929 z m 0,-0.999725 v -0.24993 h -0.249929 -0.24993 v -0.24993 -0.249929 h 0.499859 0.499858 v -0.999726 -0.999718 h 0.249931 0.249929 v -0.749789 -0.749787 h -0.249929 -0.249931 v 0.499859 0.499859 h -0.499858 -0.499859 v -0.249931 -0.249928 h 0.24993 0.249929 v -0.249929 -0.24993 h -0.249929 -0.24993 v -0.24993 -0.249929 h 0.499859 0.499858 v -0.24993 -0.249938 h -0.499858 -0.499859 v 0.249938 0.24993 h -0.249939 -0.249929 v -0.24993 -0.249938 h -0.24993 -0.249927 v 0.249938 0.24993 h -0.249931 -0.249928 v 0.249929 0.24993 h -0.24993 -0.249931 v 0.24993 0.249929 h 0.249931 0.24993 v 0.249928 0.249931 h -0.24993 -0.249931 v 0.249928 0.24993 h 0.249931 0.24993 v -0.24993 -0.249928 h 0.499859 0.499857 v 0.249928 0.24993 h -0.24993 -0.249927 v 0.499859 0.499859 h 0.749786 0.749798 v 0.249929 0.249939 H 65.287876 64.53809 v 0.24993 0.249928 h 0.249927 0.24993 v 0.249929 0.24993 h 0.249929 0.249939 v 0.24993 0.249939 h 0.24993 0.249929 z m -0.499859,-2.499303 v -0.24993 h 0.24993 0.249929 v 0.24993 0.249929 h -0.249929 -0.24993 z m -1.499584,-1.499576 v -0.24993 h 0.249928 0.249931 v -0.24993 -0.249929 h 0.249927 0.24993 v 0.249929 0.24993 h 0.249929 0.249939 v 0.24993 0.249929 h -0.249939 -0.249929 v -0.249929 -0.24993 h -0.24993 -0.249927 v 0.24993 0.249929 h -0.249931 -0.249928 z m 14.49595,2.999162 v -0.24993 H 78.28425 78.034322 v -0.249939 -0.249929 h -0.249929 -0.249929 v -0.249921 -0.249938 h -0.249939 -0.24993 v -0.249929 -0.24993 h -0.24993 -0.249929 v 0.499859 0.499859 h 0.249929 0.24993 v 0.249929 0.249939 h 0.24993 0.249939 v 0.24993 0.249928 h 0.499858 0.499859 z M 77.534464,24.095989 V 23.84606 h 0.249929 0.249929 v -0.24993 -0.249938 h -0.499858 -0.499869 v 0.249938 0.24993 h -0.24993 -0.249929 v 0.249929 0.24993 h 0.499859 0.499869 z m -4.998606,-1.999445 v -0.249927 h -0.249931 -0.249928 v 0.249927 0.24993 h 0.249928 0.249931 z m 0,-0.999717 v -0.249929 h -0.249931 -0.249928 v 0.249929 0.24993 h 0.249928 0.249931 z M 70.036554,20.09711 v -0.249939 h -0.24993 -0.249929 v 0.249939 0.249931 h 0.249929 0.24993 z m 6.498182,14.995801 V 34.84299 h 0.249929 0.24993 v 0.249921 0.249938 h -0.24993 -0.249929 z m 1.499586,-3.499021 v -0.249921 h 0.249928 0.249931 v -0.249938 -0.24993 h 0.249929 0.24993 v 0.24993 0.249938 h -0.24993 -0.249929 v 0.249921 0.24993 H 78.28425 78.034322 Z M 62.538644,20.596968 v -1.749523 h 1.749515 1.749515 v 1.749523 1.749506 h -1.749515 -1.749515 z m 2.999171,0 v -1.249656 h -1.249656 -1.249647 v 1.249656 1.249649 h 1.249647 1.249656 z m -1.999445,0 v -0.749797 h 0.749789 0.749788 v 0.749797 0.749789 H 64.288159 63.53837 Z m 2.999162,1.499576 v -0.249927 h 0.249931 0.249929 v 0.249927 0.24993 h -0.249929 -0.249931 z m 8.997487,-1.499576 v -1.749523 h 1.749506 1.749515 v 1.749523 1.749506 h -1.749515 -1.749506 z m 2.999162,0 v -1.249656 h -1.249656 -1.249648 v 1.249656 1.249649 h 1.249648 1.249656 z m -1.999445,0 v -0.749797 h 0.749789 0.749797 v 0.749797 0.749789 h -0.749797 -0.749789 z m -9.497344,-1.499585 v -0.249938 h 0.249929 0.24993 v 0.249938 0.249929 h -0.24993 -0.249929 z m 3.499021,0 v -0.249938 h 0.249928 0.249931 v 0.249938 0.249929 h -0.249931 -0.249928 z"
       id="path6" /><g
       id="g3"
       transform="matrix(1.0502073,0,0,1.0502073,43.805765,4.1446395)"><g
         id="g6"
         inkscape:label="Logo Collection"
         transform="matrix(0.01945916,0,0,0.01945916,23.274332,74.521638)"><path
           d="m 456.36199,-1936.4474 c -0.49332,-0.1758 -1.08041,-0.7143 -1.34183,-1.2307 -0.49317,-0.9742 -0.31017,-2.1228 0.465,-2.9186 0.50783,-0.5213 1.03296,-0.7104 1.97334,-0.7104 1.1245,0 1.85016,0.4511 2.31811,1.441 0.47463,1.0039 0.29543,2.0695 -0.47812,2.843 -0.30614,0.3062 -0.65779,0.54 -0.92186,0.6131 -0.5767,0.1597 -1.51042,0.1423 -2.01464,-0.037 z m 1.8863,-0.521 c 0.60952,-0.2547 1.24784,-1.191 1.24784,-1.8304 0,-0.6395 -0.63832,-1.5757 -1.24784,-1.8304 -0.5127,-0.2143 -1.28088,-0.1786 -1.82466,0.085 -0.59511,0.2881 -1.08892,1.0182 -1.08892,1.6099 0,0.7855 0.54427,1.6542 1.22743,1.9591 0.4167,0.186 1.24957,0.1895 1.68615,0.01 z m -1.84625,-1.7697 v -1.3949 h 0.99743 c 0.83075,0 1.02695,0.033 1.17408,0.1951 0.34568,0.3821 0.16224,1.0123 -0.35835,1.2312 l -0.30472,0.1281 0.41985,0.5506 c 0.23093,0.3028 0.41986,0.5807 0.41986,0.6174 0,0.037 -0.13164,0.051 -0.29252,0.033 -0.21863,-0.025 -0.39885,-0.1887 -0.71355,-0.6474 -0.24439,-0.3563 -0.50009,-0.6138 -0.60941,-0.6138 -0.15442,0 -0.19412,0.1106 -0.22036,0.6138 -0.0283,0.5436 -0.0593,0.6175 -0.27216,0.6478 -0.23854,0.034 -0.24015,0.025 -0.24015,-1.3609 z m 1.52614,-0.3194 c 0.34873,-0.1326 0.45963,-0.4441 0.22038,-0.619 -0.10249,-0.075 -0.41728,-0.1363 -0.69957,-0.1363 -0.51056,0 -0.51327,0 -0.51327,0.3558 0,0.1957 0.032,0.3878 0.0711,0.4269 0.10274,0.1027 0.61935,0.087 0.92131,-0.027 z"
           style="display:inline;fill:#001751;fill-opacity:1;stroke-width:1.26063"
           id="path1"
           inkscape:label="Retail Logo" /><path
           style="display:inline;fill:#ffffff;fill-opacity:1;stroke-width:0.778683"
           d="m 31.267305,-1902.221 c -3.543686,-0.592 -6.326825,-2.9099 -7.499203,-6.2456 -0.732133,-2.083 -0.826385,-4.11 -0.767283,-16.5008 l 0.057,-11.9496 3.14191,-0.057 3.141909,-0.057 0.007,11.4913 c 0.0078,12.2351 0.07756,13.2582 1.007616,14.7631 0.738636,1.1951 2.288153,2.188 3.414713,2.188 1.107716,0 2.387411,-0.8982 3.229254,-2.2664 0.684836,-1.113 0.788268,-3.0414 0.788268,-14.6962 v -11.4691 h 2.45515 c 1.446778,0 2.483353,0.084 2.523829,0.2052 0.03777,0.1128 0.02235,6.3941 -0.03434,13.9583 l -0.10302,13.7531 -0.798734,1.5999 c -1.400446,2.8052 -4.260861,4.8314 -7.476979,5.2963 -1.58958,0.2298 -1.62969,0.2297 -3.087331,-0.014 z m 172.578885,-0.068 c -1.806,-0.5009 -2.91952,-1.1452 -4.21155,-2.4373 -1.64119,-1.6412 -2.79338,-3.8921 -3.30205,-6.4509 l -0.12565,-0.6322 2.61003,-0.7732 c 1.43551,-0.4252 2.67185,-0.6971 2.74742,-0.6041 0.0756,0.093 0.26328,0.54 0.41711,0.9933 0.98712,2.9085 3.93938,4.2524 6.52517,2.9704 1.40429,-0.6962 2.00487,-1.6425 1.85734,-2.9262 -0.23693,-2.0616 -1.49087,-3.1065 -5.15374,-4.2948 -3.7044,-1.2017 -5.54491,-2.4285 -6.54118,-4.3599 -0.67463,-1.308 -1.2034,-3.8162 -1.2034,-5.7083 0,-1.7923 0.54254,-4.4823 1.1289,-5.5972 0.16883,-0.321 0.45229,-0.8608 0.62991,-1.1994 0.49504,-0.9438 2.08816,-2.4367 3.20329,-3.0018 2.86875,-1.4537 6.37764,-1.287 9.1444,0.4342 1.76441,1.0977 2.94847,2.7522 3.53143,4.9345 0.15134,0.5666 0.27627,1.1316 0.27761,1.2554 0.002,0.1994 -3.23846,2.1155 -4.16777,2.4643 -0.27974,0.1049 -0.44351,-0.063 -0.74386,-0.7639 -0.85475,-1.9941 -2.21052,-2.9558 -4.16713,-2.9558 -1.51746,0 -2.48437,0.6889 -2.86249,2.0395 -0.72443,2.5873 0.77972,4.0473 5.10803,4.9577 1.92813,0.4056 3.34293,1.138 4.72667,2.4466 1.2245,1.1581 1.88443,2.1636 2.45593,3.742 0.54281,1.4991 0.53214,6.8882 -0.0171,8.6531 -0.87318,2.8056 -2.66067,5.0524 -4.8624,6.1117 -1.98752,0.9564 -4.99984,1.2583 -7.0049,0.7023 z m 75.18333,-0.1768 c -0.63225,-0.2667 -1.47259,-0.7313 -1.86743,-1.0325 -2.35754,-1.7981 -4.11459,-5.673 -5.15724,-11.3735 -0.35899,-1.9626 -0.35846,-9.0907 7.8e-4,-10.7133 1.14453,-5.1694 2.91159,-8.465 5.58133,-10.4092 1.82349,-1.3278 2.90778,-1.7125 4.85837,-1.7234 4.72957,-0.026 8.19139,3.5032 9.57698,9.7647 0.44383,2.0057 0.37608,2.1043 -1.64496,2.3935 -0.96317,0.1379 -2.21479,0.2812 -2.78136,0.3185 -0.96746,0.064 -1.03356,0.037 -1.08649,-0.4472 -0.21584,-1.9726 -1.01756,-3.6468 -2.30214,-4.8073 -0.69275,-0.6258 -0.98973,-0.7553 -1.73216,-0.7553 -2.56331,0 -4.21209,3.0514 -4.69309,8.6856 -0.24028,2.8145 0.006,6.9008 0.53943,8.9523 0.89809,3.4537 2.79566,5.3043 4.9424,4.8201 1.9417,-0.4379 3.19546,-2.2318 3.543,-5.0696 l 0.111,-0.9064 h -2.39083 -2.39083 v -3.3921 -3.3922 l 4.89314,-0.058 c 2.69122,-0.033 4.96267,-0.03 5.04765,0.01 0.085,0.035 0.15452,4.2766 0.15452,9.4257 v 9.362 h -1.41541 -1.41541 l -0.22803,-0.8755 c -0.12542,-0.4816 -0.32966,-1.2816 -0.45388,-1.7777 l -0.22585,-0.902 -0.68417,1.005 c -1.62281,2.3839 -3.08666,3.227 -5.76843,3.3224 -1.58591,0.056 -2.0315,-0.01 -3.01091,-0.4187 z m 41.83979,0.175 c -2.54917,-0.7118 -4.88762,-2.5801 -6.0556,-4.8381 -0.54239,-1.0485 -1.56739,-3.9652 -1.56739,-4.4599 0,-0.1911 4.77025,-1.7378 5.35966,-1.7378 0.11168,0 0.2051,0.1623 0.20759,0.3606 0.007,0.5825 0.79874,2.1672 1.39829,2.7997 1.55858,1.6445 4.20664,1.9164 5.96285,0.6122 1.32332,-0.9826 1.61651,-2.3445 0.84698,-3.9342 -0.46554,-0.9617 -1.86942,-2.03 -3.26801,-2.487 -0.39661,-0.1296 -1.46279,-0.4744 -2.36931,-0.7663 -3.72205,-1.1981 -5.29686,-2.633 -6.31431,-5.7531 -0.38693,-1.1866 -0.47066,-1.8986 -0.47249,-4.0175 -0.002,-2.2869 0.0635,-2.7715 0.58439,-4.3266 0.64385,-1.9221 1.00577,-2.5419 2.26841,-3.8843 2.01641,-2.1439 4.62944,-2.9556 7.75697,-2.4096 3.01935,0.5271 5.06817,2.006 6.25129,4.5126 0.38224,0.8097 0.74969,1.8454 0.81658,2.3014 0.13709,0.9348 0.1923,0.8799 -2.13471,2.1198 -0.73654,0.3924 -1.42724,0.7934 -1.5349,0.891 -0.42095,0.3819 -0.75619,0.1339 -1.22243,-0.904 -0.55965,-1.246 -1.34644,-2.0569 -2.43822,-2.5129 -2.3219,-0.97 -4.56694,0.3919 -4.56694,2.7704 0,2.0278 1.36197,3.1164 4.93748,3.9466 4.14986,0.9634 6.66748,3.2528 7.5708,6.8845 0.68213,2.7423 0.58247,5.6126 -0.29332,8.4481 -1.00226,3.245 -3.36604,5.5196 -6.6423,6.392 -1.30019,0.3461 -3.82797,0.3424 -5.08136,-0.01 z m -328.9296804,-0.786 c -0.054,-0.1416 -0.0743,-7.8135 -0.045,-17.0487 l 0.0533,-16.7911 h 4.52319 4.52318996 l 0.25903004,1.1331 c 0.23064,1.009 1.606279,8.1472 2.144053,11.1255 0.112535,0.6232 0.289577,1.5039 0.393422,1.9572 0.103845,0.4533 0.336508,1.6585 0.51703,2.6783 0.520775,2.9421 0.518268,2.9335 0.741711,2.5342 0.106002,-0.1894 0.284079,-0.7907 0.395727,-1.3362 0.20998,-1.026 0.31796,-1.5013 1.44248,-6.3486 0.368029,-1.5864 0.789764,-3.4406 0.937184,-4.1205 0.645232,-2.9757 1.694057,-7.2818 1.825343,-7.4942 0.09874,-0.1598 1.4838274,-0.2318 4.4576574,-0.2318 h 4.314404 v 17.1002 17.1002 h -2.884375 -2.884375 l -0.0062,-13.3402 c -0.0031,-7.3746 -0.08414,-13.202 -0.180389,-13.0312 -0.09578,0.1699 -0.241073,0.7725 -0.322889,1.3391 -0.08182,0.5667 -0.31374,1.7255 -0.515387,2.5753 -0.201648,0.8499 -0.52727,2.287 -0.723615,3.1935 -0.196337,0.9065 -0.527901,2.3899 -0.736814,3.2964 -0.2089054,0.9065 -0.6617564,2.9462 -1.0063314,4.5326 -0.344583,1.5864 -0.679097,3.1162 -0.743378,3.3995 -0.06424,0.2832 -0.20104,0.8859 -0.30392,1.3391 -0.629931,2.7753 -1.435783,6.4628 -1.435783,6.5699 0,0.069 -0.923541,0.126 -2.052321,0.126 h -2.052367 l -0.184847,-0.7726 c -0.10168,-0.425 -0.28413,-1.2362 -0.40546,-1.8028 -0.45486,-2.124 -0.89674,-4.1471 -1.08002004,-4.9446 -0.10417,-0.4533 -0.51927,-2.4002 -0.92244,-4.3265 -0.40318,-1.9264 -0.82011,-3.8734 -0.92652,-4.3266 -0.27390996,-1.1667 -1.42325996,-6.4875 -1.82468996,-8.4471 -0.32838,-1.603 -0.33909,-1.2883 -0.39067,11.486 l -0.053,13.1342 h -2.37425 c -1.70964,0 -2.40174,-0.072 -2.4725,-0.2576 z m 54.5022184,-16.8401 v -17.1027 h 2.779899 2.779899 l 0.05295,13.7522 0.05295,13.7523 4.944639,0.1031 4.944639,0.1029 v 3.1935 3.1933 l -7.777504,0.054 -7.777512,0.054 z m 18.904413,3.4484 -0.05295,-13.6493 -2.987387,-0.041 -2.987387,-0.041 -0.05653,-3.4115 -0.05653,-3.4115 9.121675,0.054 9.121667,0.054 0.05661,3.3478 c 0.044,2.6039 -0.0016,3.3488 -0.206024,3.3518 -0.144453,0 -1.514251,0.025 -3.043997,0.051 l -2.781364,0.047 -0.05295,13.6492 -0.05295,13.6493 H 68.3837 65.399256 Z m 15.184806,13.3917 c -0.05404,-0.1416 -0.07429,-7.8135 -0.04501,-17.0487 l 0.05326,-16.7911 2.935877,-0.057 2.935878,-0.057 v 17.1059 17.1058 h -2.890839 c -2.122908,0 -2.916939,-0.069 -2.9891,-0.2575 z m 10.618553,-16.8535 v -17.1111 l 6.443432,0.062 6.443438,0.062 1.37215,0.6759 c 2.20137,1.0843 3.73384,3.1138 4.62369,6.123 0.54745,1.8514 0.49799,6.099 -0.0936,8.0373 -0.84203,2.7589 -2.49959,4.9211 -4.58157,5.9766 -1.30126,0.6596 -2.95608,0.9231 -5.798293,0.9231 h -2.434483 v 6.1808 6.1808 H 94.137007 91.14962 Z m 11.28088,-2.3005 c 2.35212,-1.5566 2.70028,-5.9252 0.59185,-7.4266 -0.58311,-0.4152 -0.88792,-0.4587 -3.219511,-0.4595 h -2.575433 l -0.05614,4.0114 c -0.03084,2.2064 -0.0062,4.1406 0.05396,4.2984 0.08706,0.2269 0.555824,0.2704 2.240607,0.208 1.893027,-0.07 2.223507,-0.1404 2.964627,-0.6308 z m 10.14589,2.3114 v -17.1002 h 2.88438 2.88436 v 13.8038 13.8038 h 4.94464 4.94464 v 3.2964 3.2964 h -7.829 -7.82902 z m 17.71829,0 v -17.1024 h 8.76164 8.76164 l -0.057,2.9972 -0.057,2.9972 -5.66573,0.041 -5.66573,0.041 -0.0571,3.1778 c -0.0431,2.4026 0.007,3.2195 0.20602,3.3489 0.14471,0.094 2.21005,0.1635 4.58966,0.1543 l 4.32656,-0.017 v 3.3637 3.3637 l -4.5841,0.055 -4.58409,0.055 v 3.7045 c 0,2.8242 0.0612,3.7055 0.25753,3.7085 0.14165,0 2.78395,0.01 5.87177,0.01 5.16874,0 5.61507,0.03 5.62484,0.3566 0.006,0.1951 0.0132,1.7917 0.0164,3.548 l 0.005,3.1934 -8.87554,0.054 -8.87554,0.054 z m 39.76314,0 v -17.1002 h 2.88437 2.88438 v 13.8038 13.8038 h 4.94464 4.94464 v 3.2964 3.2964 h -7.82902 -7.82901 z m 18.02732,0 v -17.1002 h 3.0389 3.03889 v 17.1002 17.1002 h -3.03889 -3.0389 z m 35.90162,3.4509 -0.0529,-13.6493 -2.98739,-0.014 -2.98739,-0.014 -0.0565,-3.4393 -0.0564,-3.4393 9.12166,0.054 9.12167,0.054 0.0566,3.3479 c 0.0439,2.5977 -0.002,3.3522 -0.20602,3.3669 -0.14446,0.01 -1.51425,0.034 -3.044,0.051 l -2.78136,0.033 -0.0529,13.6492 -0.0529,13.6493 h -2.98444 -2.98445 z m 15.18481,13.3917 c -0.054,-0.1416 -0.0743,-7.8135 -0.045,-17.0487 l 0.0532,-16.7911 2.93588,-0.057 2.93588,-0.057 v 17.1059 17.1058 h -2.89084 c -2.12291,0 -2.91694,-0.069 -2.9891,-0.2575 z m 10.61855,-16.8426 v -17.1002 h 2.98224 2.98224 l 0.4172,0.9158 c 0.22946,0.5037 0.4172,0.9649 0.4172,1.025 0,0.06 0.27813,0.7163 0.61808,1.4586 0.33994,0.7422 0.61808,1.3871 0.61808,1.433 0,0.046 0.26776,0.6694 0.59503,1.3855 0.32726,0.7161 1.63575,3.7589 2.90775,6.7617 1.27201,3.0028 2.37175,5.5525 2.44387,5.6658 0.0721,0.1133 0.17749,-4.0124 0.23415,-9.1682 l 0.10301,-9.3742 h 2.2663 2.26629 l 0.0527,17.0487 0.0527,17.0487 h -2.46387 -2.46386 l -0.43853,-0.9786 c -0.24119,-0.5383 -1.11711,-2.6011 -1.9465,-4.5841 -3.16435,-7.5657 -4.45779,-10.6322 -4.74756,-11.2557 -0.16496,-0.3549 -0.65159,-1.5138 -1.08142,-2.5753 -0.42981,-1.0616 -0.89139,-2.1155 -1.02573,-2.3421 -0.19044,-0.3213 -0.24562,2.0274 -0.2505,10.6619 l -0.006,11.0739 h -2.2663 -2.26629 z m 87.03807,16.8426 c -0.054,-0.1416 -0.0743,-7.8135 -0.045,-17.0487 l 0.0533,-16.7911 8.71015,-0.054 8.71014,-0.054 -0.057,3.0029 -0.057,3.0029 -5.45971,-0.013 c -3.00283,-0.01 -5.57809,0.063 -5.7228,0.1569 -0.19893,0.1288 -0.24917,0.9454 -0.20602,3.3482 l 0.0571,3.1778 4.69219,0.055 4.69219,0.055 -0.0566,3.3441 -0.0566,3.344 -4.63561,0.103 -4.63559,0.1031 -0.0567,3.487 c -0.0311,1.9178 0.0171,3.5607 0.10716,3.6508 0.0901,0.09 2.57246,0.1716 5.51636,0.1811 2.9439,0.01 5.56114,0.069 5.81611,0.1315 0.45792,0.1128 0.46356,0.1565 0.46356,3.5943 v 3.4801 h -8.86562 c -6.90273,0 -8.88737,-0.057 -8.96387,-0.2575 z m 20.39882,0.01 c -0.0552,-0.1447 -0.0765,-7.8192 -0.0473,-17.0544 l 0.0533,-16.7911 5.97478,-0.062 c 6.49822,-0.067 7.75622,0.061 9.44598,0.9578 4.25936,2.2618 5.77961,9.695 3.07595,15.0398 -0.48898,0.9667 -2.30976,2.9153 -2.72398,2.9153 -0.0824,0 0.15269,0.9504 0.52237,2.1118 0.36967,1.1615 1.01291,3.2244 1.42942,4.5841 0.41651,1.3599 1.16482,3.7239 1.66292,5.2537 0.4981,1.5298 0.90576,2.8973 0.90591,3.0389 2.1e-4,0.1952 -0.78969,0.2575 -3.26353,0.2575 h -3.26381 l -0.36485,-1.2876 c -0.20067,-0.7082 -0.44231,-1.5194 -0.53697,-1.8027 -0.20338,-0.6086 -0.90162,-3.0142 -1.42962,-4.9255 -1.11727,-4.0442 -1.50326,-5.2845 -1.6786,-5.3937 -0.10673,-0.066 -0.9548,-0.1128 -1.88461,-0.103 l -1.69056,0.018 -0.10301,6.6959 -0.10301,6.6958 -2.94017,0.057 c -2.23855,0.044 -2.96413,-0.01 -3.0406,-0.2059 z m 11.44546,-19.5593 c 1.43677,-0.5009 2.2138,-1.7155 2.38989,-3.7359 0.0982,-1.1267 0.042,-1.4125 -0.47211,-2.3984 -0.86726,-1.6632 -1.38853,-1.8681 -4.75242,-1.8681 h -2.73306 v 4.1205 4.1205 h 2.44157 c 1.34287,0 2.74963,-0.1073 3.12613,-0.2386 z m 17.29538,18.9653 c -0.12678,-0.4708 -0.31615,-1.3307 -0.42082,-1.9108 -0.10468,-0.5802 -0.27349,-1.4256 -0.37513,-1.8789 -0.20318,-0.9061 -0.6209,-2.8678 -1.25033,-5.8718 -0.47656,-2.2744 -1.2443,-5.8624 -1.85154,-8.6531 -0.23423,-1.0765 -0.66691,-3.1162 -0.9615,-4.5326 -0.29458,-1.4164 -0.60897,-2.8998 -0.69862,-3.2964 -0.58341,-2.5808 -1.30298,-5.9745 -1.38696,-6.5413 l -0.0992,-0.6696 h 3.09906 c 3.48906,0 3.18598,-0.1541 3.5285,1.7935 0.16118,0.9164 0.89457,4.5029 2.20317,10.7741 0.29557,1.4164 0.59636,2.8998 0.66844,3.2964 0.66699,3.6701 1.59533,8.0351 1.7089,8.0351 0.20484,0 0.25771,-0.2228 1.39368,-5.8718 0.56967,-2.8329 1.45658,-7.1903 1.97093,-9.6833 0.84789,-4.1095 1.07794,-5.2527 1.51331,-7.5199 l 0.13847,-0.7211 2.35356,-0.058 c 1.29447,-0.032 2.4619,-0.017 2.59431,0.034 0.17691,0.068 0.13538,0.575 -0.15665,1.9128 -0.21857,1.0012 -0.56798,2.6085 -0.77649,3.5718 -0.303,1.3996 -1.81293,8.2323 -2.68621,12.1555 -0.48434,2.1759 -1.1631,5.2537 -2.31725,10.5073 l -1.28993,5.8718 -3.33559,0.057 -3.33558,0.057 z m 16.28197,-16.2543 v -17.1002 h 2.98739 2.98739 v 17.1002 17.1002 h -2.98739 -2.98739 z m 17.43713,16.6803 c -2.75615,-1.0469 -5.03896,-3.5397 -6.28057,-6.8582 -1.28551,-3.4358 -1.58169,-5.5697 -1.56346,-11.2643 0.0137,-4.2787 0.17634,-5.4018 1.24701,-8.6109 2.04412,-6.1268 6.41731,-9.4177 11.30775,-8.5093 4.64872,0.8636 7.84339,5.4477 8.42682,12.0918 l 0.11025,1.2556 -1.79622,0.257 c -0.98791,0.1414 -2.2903,0.3494 -2.89418,0.4622 -0.60389,0.1129 -1.12047,0.1739 -1.14794,0.1357 -0.0275,-0.038 -0.16978,-0.9502 -0.31624,-2.0268 -0.39221,-2.8826 -1.5293,-4.7429 -3.24867,-5.315 -1.64653,-0.5478 -3.63511,0.9704 -4.36462,3.3323 -1.52981,4.9529 -1.17428,13.4878 0.69622,16.7136 1.28134,2.2099 3.47462,2.7849 5.11802,1.342 1.07172,-0.941 1.95881,-2.9971 2.02532,-4.6944 0.0189,-0.4823 0.135,-0.9519 0.258,-1.0436 0.12301,-0.092 1.24348,-0.037 2.48994,0.1222 3.48478,0.4443 3.20278,0.3117 3.07222,1.4439 -0.41859,3.6299 -1.64992,6.8471 -3.34029,8.7272 -1.10379,1.2277 -1.96351,1.8039 -3.60267,2.4146 -1.56697,0.5839 -4.69143,0.5961 -6.19669,0.024 z m 16.19552,-16.6288 0.0527,-17.0487 8.70462,-0.054 8.70463,-0.054 v 2.9864 2.9864 l -5.71724,0.054 -5.71724,0.055 v 3.2964 3.2964 l 4.42958,0.061 c 2.43626,0.034 4.54546,0.1 4.6871,0.1481 0.19011,0.065 0.25754,0.8669 0.25754,3.0645 0,1.6374 -0.0563,3.1236 -0.12506,3.3029 -0.10889,0.2837 -0.72212,0.3259 -4.74326,0.3259 h -4.6182 l 0.0561,3.7241 0.0561,3.7241 5.76875,0.036 5.76875,0.036 0.0564,3.554 0.0564,3.554 h -8.8652 -8.8652 z"
           id="path2"
           inkscape:label="TEXT" /><path
           style="display:inline;fill:#ef3e34;fill-opacity:1;stroke-width:0.778683"
           d="m 479.1891,-2031.7041 c -502.89931,-100.674 -502.89931,-100.674 0,0 z m -349.26623,-31.4362 c -0.14185,-0.1314 -0.81419,-0.5399 -1.49408,-0.9078 -0.67989,-0.368 -1.9315,-1.0438 -2.78136,-1.5016 -0.84986,-0.4579 -1.77698,-0.9839 -2.06027,-1.1689 -0.28328,-0.185 -0.88591,-0.5179 -1.33917,-0.7398 -0.45326,-0.2218 -0.87046,-0.4598 -0.92712,-0.5287 -0.0567,-0.069 -0.70564,-0.4505 -1.44219,-0.848 -0.73654,-0.3974 -1.80273,-0.9817 -2.3693,-1.2983 -0.56658,-0.3166 -1.21556,-0.6767 -1.44219,-0.8002 -0.22663,-0.1235 -0.45841,-0.271 -0.51507,-0.3278 -0.0567,-0.057 -0.52021,-0.3136 -1.03013,-0.5706 -0.50992,-0.2571 -1.29797,-0.6822 -1.75122,-0.9447 -0.45326,-0.2626 -1.24132,-0.7129 -1.75123,-1.0008 -0.50991,-0.2878 -1.52975,-0.872 -2.2663,-1.2982 -0.73654,-0.4262 -1.80273,-1.017 -2.3693,-1.313 -0.56657,-0.2961 -1.07649,-0.5846 -1.13314,-0.6413 -0.0567,-0.057 -0.47386,-0.2985 -0.92713,-0.5375 -0.45325,-0.239 -1.1486,-0.6098 -1.54519,-0.8241 -0.39661,-0.2143 -0.752,-0.4591 -0.78978,-0.5441 -0.0378,-0.085 -0.1555,-0.1546 -0.26163,-0.1546 -0.10611,0 -0.53877,-0.2161 -0.96145,-0.4803 -0.42268,-0.2643 -1.278421,-0.7591 -1.901655,-1.0996 -0.623227,-0.3405 -1.782126,-0.9723 -2.575332,-1.4038 -0.793198,-0.4315 -1.534893,-0.8548 -1.648207,-0.9405 -0.113314,-0.086 -1.086793,-0.6417 -2.163284,-1.2354 -1.07649,-0.5937 -2.652592,-1.4684 -3.502454,-1.9437 -0.849855,-0.4754 -1.869619,-1.0417 -2.266132,-1.2585 -0.396521,-0.2168 -0.767369,-0.4406 -0.824112,-0.4972 -0.05677,-0.057 -0.659435,-0.3812 -1.339327,-0.7212 -0.679884,-0.3399 -1.267058,-0.6876 -1.304832,-0.7726 -0.03777,-0.085 -0.20002,-0.1545 -0.360546,-0.1545 -0.160533,0 -0.291874,-0.072 -0.291874,-0.1609 0,-0.088 -0.254956,-0.2676 -0.56657,-0.3982 -0.311621,-0.1305 -1.122845,-0.5518 -1.802737,-0.9361 -0.679884,-0.3843 -1.653363,-0.9361 -2.163276,-1.2263 -0.50992,-0.2901 -1.935183,-1.0944 -3.167255,-1.7874 -1.232071,-0.6929 -2.321441,-1.2598 -2.420809,-1.2598 -0.09938,0 -0.180686,-0.082 -0.180686,-0.1821 0,-0.1 -0.162239,-0.2339 -0.360546,-0.2973 -0.198299,-0.064 -0.916814,-0.4454 -1.596705,-0.8487 -0.679884,-0.4032 -1.653363,-0.9591 -2.163276,-1.2354 -0.509921,-0.2763 -1.344327,-0.7415 -1.854239,-1.0338 -0.509921,-0.2923 -1.251617,-0.6919 -1.648216,-0.8879 -0.396599,-0.196 -0.767447,-0.4083 -0.824104,-0.4717 -0.05669,-0.063 -0.555076,-0.3647 -1.107591,-0.6696 -0.552515,-0.3049 -1.219208,-0.5543 -1.481531,-0.5543 -0.26233,0 -0.532728,0.09 -0.600886,0.2005 -0.06814,0.1103 -0.467654,0.3619 -0.887769,0.5593 -0.420115,0.1974 -1.320125,0.6748 -2.000009,1.0611 -0.679892,0.3862 -1.607008,0.9088 -2.060264,1.1612 -0.453263,0.2525 -1.380379,0.7657 -2.060271,1.1404 -0.679884,0.3747 -1.607008,0.8872 -2.060264,1.1387 -0.453256,0.2517 -1.334024,0.7238 -1.957251,1.0491 -0.623235,0.3254 -1.179503,0.6379 -1.23616,0.6946 -0.05669,0.057 -0.47386,0.3002 -0.927123,0.5412 -0.453256,0.241 -1.38038,0.7429 -2.060264,1.1153 -0.679892,0.3724 -1.537471,0.8473 -1.905749,1.0555 -0.368271,0.2081 -1.017257,0.5758 -1.442184,0.817 -0.424928,0.2413 -1.42158,0.7857 -2.214786,1.2097 -0.793205,0.4242 -1.905749,1.0394 -2.472319,1.3674 -0.56657,0.328 -1.400983,0.7802 -1.854239,1.0051 -0.453256,0.2248 -0.85501,0.4783 -0.892784,0.5632 -0.03777,0.085 -0.200012,0.1546 -0.360546,0.1546 -0.160525,0 -0.291874,0.093 -0.291874,0.206 0,0.1133 -0.177695,0.206 -0.394878,0.206 -0.21719,0 -0.425791,0.069 -0.463565,0.1546 -0.03777,0.085 -0.578585,0.4244 -1.20182,0.7544 -0.623227,0.3299 -1.596706,0.8398 -2.163276,1.1331 -0.566577,0.2933 -1.07649,0.5797 -1.133147,0.6363 -0.05669,0.057 -0.520215,0.3299 -1.030136,0.6072 -0.509913,0.2773 -1.205184,0.6482 -1.54504,0.8241 -0.339864,0.176 -0.664349,0.3663 -0.7211,0.4229 -0.05677,0.057 -0.474015,0.3002 -0.927271,0.5412 -0.453256,0.2411 -1.38038,0.743 -2.060264,1.1153 -0.679891,0.3724 -1.560652,0.8593 -1.957259,1.082 -0.396599,0.2226 -1.416433,0.7786 -2.266288,1.2353 -0.849863,0.4568 -1.791291,1.0012 -2.092073,1.2097 -0.300782,0.2086 -0.694803,0.3792 -0.875613,0.3792 -0.180811,0 -0.328745,0.093 -0.328745,0.2061 0,0.1133 -0.139065,0.206 -0.309036,0.206 -0.169971,0 -0.309916,0.069 -0.31099,0.1545 -7.79e-4,0.085 -0.418278,0.3376 -0.927124,0.5613 -0.508838,0.2237 -0.925169,0.4786 -0.925169,0.5665 0,0.088 -0.147927,0.1599 -0.328737,0.1599 -0.18081,0 -0.57484,0.1746 -0.875614,0.388 -0.300782,0.2135 -1.4739934,0.8758 -2.6071404,1.4719 -1.133148,0.5961 -2.292047,1.233 -2.575332,1.4156 -0.283285,0.1824 -0.885915,0.5128 -1.339171,0.7343 -0.453256,0.2213 -1.055887,0.5577 -1.339172,0.7473 -0.283285,0.1897 -1.117702,0.6696 -1.854242,1.0666 -0.73655004,0.3969 -1.77955004,0.9641 -2.31779004,1.2605 l -1.95725996,1.0776 c -0.53825,0.2963 -1.58125,0.8683 -2.3178,1.2709 -0.73654,0.4028 -1.68581,0.9037 -2.10947,1.1132 l -0.7703,0.3809 -0.003,53.975 -0.003,53.975 69.0715534,0.051 69.071567,0.052 0.0519,-53.7652 c 0.0413,-42.8444 -5e-4,-53.8137 -0.20603,-54.0039 z m -79.213215,76.4857 c -0.200721,-0.095 -0.967584,-1.0043 -1.704125,-2.0197 -0.736549,-1.0154 -1.483851,-2.004 -1.660682,-2.1968 -0.176831,-0.1929 -0.822344,-1.0457 -1.434483,-1.895 -0.61213,-0.8493 -1.164116,-1.5905 -1.226636,-1.6472 -0.06253,-0.057 -1.224892,-1.5688 -2.58304,-3.3604 -1.358156,-1.7916 -2.654796,-3.5216 -2.881424,-3.8444 -0.226628,-0.3228 -1.524133,-2.0555 -2.88334,-3.8505 -1.359215,-1.7949 -2.543008,-3.3563 -2.630664,-3.4695 -0.08765,-0.1133 -0.325677,-0.4089 -0.528944,-0.6566 -0.203268,-0.2478 -0.549213,-0.694 -0.768779,-0.9917 -0.219565,-0.2976 -0.756825,-1.022 -1.193908,-1.6098 -0.43709,-0.5876 -0.860414,-1.1149 -0.940719,-1.1716 -0.08031,-0.057 -0.460389,-0.5665 -0.84463,-1.1331 -0.384249,-0.5666 -1.07347,-1.5005 -1.531608,-2.0755 -0.458138,-0.575 -1.03072,-1.3167 -1.2724,-1.6482 l -0.439418,-0.6028 -0.02546,15.7496 c -0.01986,12.3094 -0.08143,15.7853 -0.281673,15.9124 -0.140919,0.09 -4.302443,0.1642 -9.247838,0.166 H 7.6382646 l -0.127899,-0.3333 c -0.07031,-0.1833 -0.06767,-13.8815 0.0062,-30.4405 0.08571,-19.2764 0.206982,-30.1997 0.337107,-30.3646 0.157006,-0.1989 2.2367764,-0.2576 9.1421864,-0.2576 h 8.938949 l 0.291212,0.3606 c 0.160167,0.1983 0.924134,1.1551 1.697701,2.1262 0.773575,0.9711 1.657225,2.0836 1.963683,2.4723 0.306451,0.3887 1.140857,1.4561 1.85424,2.372 0.713375,0.916 1.505062,1.9358 1.759302,2.2663 0.254233,0.3305 0.749226,0.9718 1.099976,1.4251 0.35075,0.4532 0.884436,1.1444 1.185958,1.5358 0.301529,0.3916 0.754676,0.9267 1.006985,1.1892 0.252309,0.2626 0.550708,0.6493 0.663096,0.8593 0.112395,0.21 0.90096,1.251 1.752372,2.3133 0.851404,1.0622 1.623648,2.0241 1.716093,2.1374 0.09244,0.1133 0.673538,0.8648 1.291337,1.67 0.617792,0.8052 3.058629,3.9392 5.424082,6.9645 2.365453,3.0252 4.408476,5.6114 4.540051,5.747 0.131581,0.1355 0.514008,0.6171 0.849847,1.0703 0.335838,0.4532 0.681861,0.9167 0.768949,1.0302 0.08709,0.1134 0.324649,0.4089 0.527909,0.6567 0.203267,0.2478 0.549221,0.6957 0.768786,0.9953 0.219557,0.2997 0.538272,0.7104 0.708243,0.9128 0.169971,0.2023 0.540819,0.6732 0.824104,1.0463 0.283285,0.3732 1.132097,1.4523 1.886244,2.3982 l 1.371183,1.7196 0.548855,-0.671 c 0.301872,-0.369 0.658322,-0.8127 0.7921,-0.986 0.133786,-0.1733 0.613953,-0.7759 1.067037,-1.3391 0.453085,-0.5633 0.978377,-1.2096 1.167309,-1.4362 0.188932,-0.2267 0.65263,-0.7952 1.030439,-1.2634 0.377825,-0.4683 1.057795,-1.3332 1.511051,-1.922 0.453256,-0.5889 1.031716,-1.2988 1.28545,-1.5777 0.253742,-0.2789 1.733902,-2.1026 3.289252,-4.0528 1.555342,-1.9502 3.294694,-4.1078 3.865212,-4.7946 0.570526,-0.6869 1.315437,-1.6086 1.655395,-2.0484 0.339934,-0.4397 1.152264,-1.4538 1.805151,-2.2535 0.652887,-0.7998 1.708377,-2.0908 2.345527,-2.869 0.637157,-0.7782 1.870459,-2.308 2.740684,-3.3994 0.87021,-1.0915 1.716351,-2.1237 1.880295,-2.2937 0.163936,-0.1699 0.794288,-0.9461 1.400765,-1.7249 0.606485,-0.7788 1.270749,-1.6132 1.476142,-1.8543 0.205394,-0.2411 1.324611,-1.6435 2.487138,-3.1166 1.162527,-1.4731 2.171023,-2.7247 2.241097,-2.7814 0.07008,-0.057 0.659482,-0.7751 1.309792,-1.5966 l 1.182391,-1.4938 h 9.365437 9.36543 l -0.0271,28.3802 c -0.0149,15.6091 -0.0844,29.4464 -0.15452,30.7494 l -0.12742,2.3694 -9.36178,0.054 c -6.390636,0.037 -9.431114,-0.015 -9.580247,-0.1648 -0.149282,-0.1494 -0.231876,-5.1242 -0.260843,-15.7117 -0.02328,-8.5212 -0.04649,-15.5698 -0.05147,-15.6635 -0.0047,-0.094 -0.264068,0.1368 -0.575689,0.5123 -0.311613,0.3754 -0.676356,0.8229 -0.810547,0.9944 -0.134198,0.1715 -0.759332,0.9608 -1.389186,1.7541 -0.629853,0.7931 -1.215851,1.5348 -1.302207,1.6481 -0.08636,0.1133 -1.263025,1.5967 -2.614811,3.2965 -1.351786,1.6997 -3.066509,3.8616 -3.810487,4.8044 -0.744,0.9427 -1.525183,1.9161 -1.735973,2.1633 -0.210789,0.247 -0.810827,1.0055 -1.333425,1.6854 -0.522597,0.6799 -1.323605,1.7024 -1.780023,2.2723 -0.456417,0.5698 -1.061633,1.3427 -1.344918,1.7174 -0.283285,0.3748 -0.61224,0.7893 -0.731005,0.9212 -0.118765,0.1319 -0.611321,0.7497 -1.094579,1.3729 -0.483251,0.6232 -1.108121,1.4112 -1.388595,1.7512 -0.280474,0.34 -0.993164,1.2362 -1.583764,1.9916 -0.5906,0.7555 -1.537378,1.9601 -2.103947,2.6768 -0.566578,0.7168 -1.252333,1.557 -1.523915,1.8671 l -0.493778,0.5638 -8.721502,0.056 c -4.796829,0.03 -8.885734,-0.023 -9.086455,-0.1176 z m 400.459665,31.0774 c -9e-5,-0.1134 0.002,-24.3576 0.006,-53.876 0.005,-43.3638 -0.0445,-53.6994 -0.25738,-53.8235 -0.14488,-0.084 -0.9545,-0.5712 -1.79915,-1.0817 -0.84465,-0.5104 -1.64815,-0.9281 -1.78556,-0.9281 -0.13741,0 -0.28074,-0.069 -0.31852,-0.1545 -0.0378,-0.085 -0.6713,-0.4624 -1.40785,-0.8388 -0.73654,-0.3763 -1.80273,-0.9702 -2.3693,-1.3198 -0.56658,-0.3496 -1.67912,-0.9975 -2.47232,-1.4399 -0.7932,-0.4424 -1.60443,-0.8559 -1.80273,-0.919 -0.1983,-0.063 -0.36055,-0.1965 -0.36055,-0.2966 0,-0.1001 -0.10187,-0.1821 -0.22638,-0.1821 -0.12451,0 -1.01398,-0.4635 -1.97662,-1.0301 -0.96263,-0.5665 -1.87286,-1.0301 -2.02274,-1.0301 -0.14988,0 -0.30341,-0.071 -0.34118,-0.1578 -0.0378,-0.087 -0.65477,-0.504 -1.37111,-0.9271 -0.71634,-0.4231 -1.38078,-0.7693 -1.47652,-0.7693 -0.0958,0 -0.205,-0.07 -0.24277,-0.1564 -0.0378,-0.086 -0.53224,-0.3965 -1.09881,-0.6899 -0.56657,-0.2936 -1.35463,-0.7178 -1.75123,-0.943 -0.3966,-0.225 -1.18465,-0.6659 -1.75123,-0.9797 -0.56657,-0.3138 -1.14601,-0.6649 -1.28766,-0.7802 -0.14164,-0.1154 -0.25753,-0.1476 -0.25753,-0.072 0,0.076 -0.41073,-0.1444 -0.91273,-0.4898 -0.50201,-0.3454 -0.95666,-0.628 -1.01035,-0.628 -0.0537,0 -0.68596,-0.3358 -1.40506,-0.7463 -0.71911,-0.4105 -1.63196,-0.9308 -2.02856,-1.1564 -0.39659,-0.2255 -1.33989,-0.7704 -2.0962,-1.2109 -0.75632,-0.4405 -1.47871,-0.8009 -1.60533,-0.8009 -0.12661,0 -0.40468,-0.1623 -0.61793,-0.3606 -0.21326,-0.1982 -0.94955,-0.6387 -1.63621,-0.9786 -0.68666,-0.3399 -1.25,-0.6876 -1.25186,-0.7726 -0.002,-0.085 -0.0967,-0.1545 -0.21072,-0.1545 -0.11403,0 -1.18716,-0.5563 -2.38474,-1.2362 -1.19758,-0.6799 -2.22569,-1.2362 -2.2847,-1.2362 -0.059,0 -0.35337,-0.1707 -0.65415,-0.3795 -0.30078,-0.2088 -1.05679,-0.6447 -1.68002,-0.9688 -0.62323,-0.324 -1.27221,-0.6964 -1.44219,-0.8276 -0.16997,-0.1312 -0.86531,-0.5444 -1.54519,-0.9182 -0.67989,-0.3737 -1.60701,-0.8834 -2.06027,-1.1326 -0.45326,-0.2492 -1.1486,-0.6365 -1.5452,-0.8606 -0.3966,-0.2241 -1.18465,-0.6653 -1.75123,-0.9802 -0.56657,-0.315 -1.26191,-0.7253 -1.54519,-0.9118 -0.28329,-0.1864 -1.07135,-0.6162 -1.75123,-0.9549 -0.67989,-0.3387 -1.26707,-0.6854 -1.30484,-0.7704 -0.0378,-0.085 -0.17849,-0.1544 -0.31272,-0.1544 -0.13422,0 -0.56688,-0.2164 -0.96146,-0.4808 -0.39457,-0.2644 -1.32003,-0.8088 -2.05658,-1.2098 -0.73654,-0.4009 -2.34723,-1.2971 -3.57931,-1.9915 -1.23207,-0.6945 -2.45503,-1.2626 -2.71769,-1.2626 -0.26265,0 -0.53123,0.087 -0.59683,0.193 -0.0656,0.1061 -0.37238,0.3257 -0.68174,0.488 -0.30936,0.1623 -1.16511,0.6132 -1.90165,1.002 -0.73655,0.3889 -1.57096,0.8414 -1.85424,1.0057 -0.28329,0.1643 -0.56143,0.3451 -0.61808,0.4017 -0.0567,0.057 -0.52022,0.3101 -1.03014,0.5634 -0.50991,0.2531 -1.48339,0.7915 -2.16328,1.1962 -0.67989,0.4048 -1.3984,0.7879 -1.5967,0.8514 -0.1983,0.064 -0.36055,0.1973 -0.36055,0.2974 0,0.1001 -0.13499,0.182 -0.29997,0.182 -0.16499,0 -0.79079,0.2895 -1.39068,0.6433 -0.59989,0.3538 -1.60062,0.9228 -2.22386,1.2644 -0.62322,0.3416 -1.34102,0.7243 -1.59509,0.8504 -0.25408,0.1261 -0.46268,0.2988 -0.46356,0.3838 -7.8e-4,0.085 -0.17569,0.1545 -0.38844,0.1545 -0.21275,0 -0.50224,0.1391 -0.64331,0.3091 -0.14106,0.17 -0.37647,0.309 -0.52312,0.309 -0.14665,0 -0.29755,0.069 -0.33532,0.1545 -0.0378,0.085 -0.81037,0.5254 -1.71689,0.9787 -0.90651,0.4532 -1.87999,0.9732 -2.16327,1.1554 -0.28329,0.1823 -1.07135,0.6341 -1.75123,1.0039 -0.67989,0.37 -1.60701,0.8698 -2.06026,1.1109 -0.45327,0.241 -0.87047,0.4868 -0.92713,0.5462 -0.0567,0.059 -0.56657,0.3484 -1.13315,0.6421 -0.56657,0.2938 -1.63275,0.8588 -2.3693,1.2555 -0.73654,0.3968 -1.71002,0.9317 -2.16328,1.1887 -0.45326,0.257 -1.42673,0.79 -2.16328,1.1844 -0.73654,0.3944 -1.6173,0.8816 -1.95725,1.0826 -0.33995,0.2009 -1.128,0.6392 -1.75123,0.9738 -0.62323,0.3347 -1.68942,0.9124 -2.3693,1.284 -0.67989,0.3715 -1.43885,0.8014 -1.68658,0.9554 -0.24772,0.154 -0.804,0.4794 -1.23616,0.7233 -0.43216,0.2439 -1.66651,0.9087 -2.743,1.4775 -1.07648,0.5687 -2.00361,1.091 -2.06026,1.1605 -0.0567,0.069 -0.752,0.4586 -1.5452,0.8645 -0.7932,0.406 -1.90575,0.9989 -2.47232,1.3174 -0.56658,0.3185 -1.21556,0.6802 -1.44219,0.8037 -0.22663,0.1235 -0.45841,0.2711 -0.51507,0.3278 -0.0567,0.057 -0.52021,0.3135 -1.03013,0.5706 -0.50992,0.2571 -1.29797,0.6822 -1.75122,0.9447 -0.45326,0.2625 -1.28767,0.7377 -1.85424,1.0559 -0.56657,0.3181 -1.58641,0.8743 -2.2663,1.236 -0.67988,0.3615 -1.58099,0.8549 -2.00245,1.0963 -0.42146,0.2414 -1.39493,0.7854 -2.16328,1.209 -0.76834,0.4236 -1.76783,0.9673 -2.22109,1.2083 l -0.8241,0.4383 -0.0528,53.8593 c -0.029,29.6226 -0.0177,53.952 0.0253,54.0654 0.0519,0.1367 23.21381,0.2059 68.91717,0.2059 45.75549,0 68.83907,-0.069 68.83896,-0.2059 z m -67.98863,-27.7645 c -0.0567,-0.057 -1.44733,-0.1628 -3.0904,-0.2359 -1.64306,-0.073 -3.9145,-0.181 -5.04765,-0.2397 -1.13314,-0.058 -2.66289,-0.1401 -3.39943,-0.1809 -0.73655,-0.041 -1.47825,-0.1239 -1.64822,-0.1842 -0.16997,-0.061 -0.95802,-0.1599 -1.75122,-0.2212 -0.7932,-0.062 -2.09117,-0.1998 -2.88437,-0.308 -0.79321,-0.1082 -2.32295,-0.3518 -3.39945,-0.5415 -1.07649,-0.1898 -2.3055,-0.3912 -2.73114,-0.4477 -0.42564,-0.057 -0.82513,-0.1858 -0.88777,-0.2871 -0.0626,-0.1014 -0.33432,-0.1844 -0.60374,-0.1844 -0.26942,0 -1.2606,-0.1931 -2.20263,-0.4292 -0.94202,-0.2362 -2.03726,-0.5102 -2.43386,-0.6089 -0.3966,-0.099 -0.99923,-0.237 -1.33917,-0.3073 -0.33995,-0.07 -0.80351,-0.2062 -1.03013,-0.3022 -0.22663,-0.096 -0.69019,-0.2428 -1.03014,-0.3262 -0.33994,-0.083 -0.71079,-0.1655 -0.8241,-0.1823 -0.11332,-0.017 -0.3451,-0.084 -0.51507,-0.1491 -0.16997,-0.065 -0.72625,-0.2326 -1.23616,-0.3723 -0.50991,-0.1396 -1.11255,-0.3288 -1.33917,-0.4206 -0.22663,-0.092 -0.96833,-0.3222 -1.64822,-0.5121 -0.67988,-0.19 -1.46793,-0.4413 -1.75123,-0.5584 -0.28328,-0.1171 -0.72366,-0.309 -0.97862,-0.4263 l -0.46356,-0.2133 v -8.7213 c 0,-6.8404 0.0555,-8.721 0.25753,-8.7199 0.14165,7e-4 0.53568,0.1898 0.87562,0.4202 0.33994,0.2305 1.45248,0.819 2.47232,1.3078 1.01983,0.4888 2.17873,1.006 2.57533,1.1493 0.3966,0.1433 1.09857,0.4276 1.55992,0.6319 0.46135,0.2043 1.20305,0.4371 1.64821,0.5176 0.44516,0.08 0.9021,0.21 1.01542,0.2881 0.11331,0.078 0.62322,0.262 1.13314,0.4086 0.50992,0.1467 1.11255,0.3358 1.33917,0.4203 0.22663,0.085 1.06104,0.3065 1.85424,0.4934 0.79321,0.1868 1.64532,0.3389 1.89359,0.3379 0.24827,-8e-4 0.5011,0.079 0.56184,0.1769 0.0607,0.098 0.5066,0.2354 0.99079,0.3047 0.48419,0.069 1.39026,0.2272 2.01349,0.351 0.62323,0.1237 2.01391,0.3634 3.0904,0.5326 1.07649,0.1692 2.55988,0.3943 3.29642,0.5002 0.73655,0.1059 2.31265,0.2895 3.50246,0.4078 1.1898,0.1184 2.67319,0.2517 3.29642,0.2962 0.62324,0.044 3.35824,0.079 6.07779,0.078 2.71955,0 5.26913,-0.045 5.66573,-0.096 0.3966,-0.051 1.74092,-0.1768 2.98739,-0.2801 1.24646,-0.1032 2.82256,-0.2403 3.50245,-0.3045 0.67988,-0.064 1.83878,-0.2046 2.57533,-0.312 0.73654,-0.1075 2.26629,-0.3484 3.39944,-0.5354 1.13315,-0.1871 2.3384,-0.4211 2.67835,-0.52 0.33994,-0.099 1.35977,-0.4282 2.26629,-0.7316 0.90652,-0.3035 2.04222,-0.8311 2.52377,-1.1726 0.60196,-0.4267 0.93961,-0.8512 1.08049,-1.3584 0.11272,-0.4057 0.20545,-0.8582 0.20608,-1.0055 6.3e-4,-0.1472 -0.1396,-0.5399 -0.31163,-0.8726 -0.17204,-0.3326 -0.54289,-0.6626 -0.82412,-0.7332 -0.28122,-0.071 -0.51131,-0.211 -0.51131,-0.312 0,-0.101 -0.16688,-0.1837 -0.37085,-0.1837 -0.20397,0 -0.45892,-0.076 -0.56658,-0.1702 -0.10764,-0.094 -0.56657,-0.2717 -1.01982,-0.3957 -0.45327,-0.1241 -1.2174,-0.3291 -1.69808,-0.4557 -0.48069,-0.1266 -1.50052,-0.3194 -2.26629,-0.4284 -0.76578,-0.1091 -2.59758,-0.2903 -4.07067,-0.4027 -1.47309,-0.1124 -2.79227,-0.2478 -2.93152,-0.3008 -0.13923,-0.053 -1.71533,-0.1137 -3.50244,-0.1347 -1.78711,-0.021 -4.0837,-0.1115 -5.10353,-0.2012 -1.01984,-0.09 -5.51637,-0.1769 -9.99229,-0.1937 -4.47594,-0.017 -8.92611,-0.1134 -9.88928,-0.2145 -0.96318,-0.101 -2.16843,-0.2375 -2.67835,-0.303 -0.50991,-0.065 -1.11254,-0.1975 -1.33917,-0.2933 -0.22663,-0.096 -1.15375,-0.3374 -2.06027,-0.537 -0.90652,-0.1997 -1.78728,-0.4298 -1.95725,-0.5113 -0.16997,-0.082 -0.54082,-0.241 -0.82411,-0.3543 -0.28328,-0.1133 -1.16405,-0.4683 -1.95725,-0.7888 -0.7932,-0.3205 -2.00601,-0.876 -2.69512,-1.2343 -0.68912,-0.3584 -1.6626,-0.9159 -2.16329,-1.2389 -0.50068,-0.3231 -1.58514,-1.1309 -2.40991,-1.7952 -0.82476,-0.6643 -2.05675,-1.8719 -2.73774,-2.6835 -0.68099,-0.8116 -1.30414,-1.5711 -1.38479,-1.6878 -0.0806,-0.1168 -0.32523,-0.5339 -0.54352,-0.9271 -0.21828,-0.3933 -0.46242,-0.854 -0.54254,-1.024 -0.0801,-0.17 -0.24918,-0.564 -0.37572,-0.8756 -0.12653,-0.3116 -0.34595,-0.8127 -0.48759,-1.1136 -0.17923,-0.3806 -0.25754,-1.8006 -0.25754,-4.67 0,-3.1153 0.0629,-4.144 0.25754,-4.2087 0.14164,-0.047 0.25608,-0.2403 0.25431,-0.4293 -0.002,-0.1888 0.25319,-0.8532 0.56657,-1.4764 0.31339,-0.6233 0.62062,-1.1796 0.68274,-1.2362 0.0621,-0.057 0.33109,-0.4275 0.59773,-0.8241 0.26664,-0.3966 1.07771,-1.3 1.80237,-2.0076 0.72467,-0.7075 1.89272,-1.6788 2.59568,-2.1582 0.70296,-0.4795 1.95946,-1.2217 2.79223,-1.6494 0.83278,-0.4278 1.64402,-0.7776 1.80274,-0.7776 0.15873,0 0.2886,-0.093 0.2886,-0.2061 0,-0.1133 0.18543,-0.206 0.41205,-0.206 0.22663,0 0.41205,-0.093 0.41205,-0.206 0,-0.1133 0.23178,-0.2061 0.51507,-0.2061 0.28328,0 0.51507,-0.093 0.51507,-0.206 0,-0.1133 0.13582,-0.206 0.30184,-0.206 0.16601,0 0.74546,-0.1437 1.28767,-0.3194 0.54219,-0.1758 1.17125,-0.3999 1.39787,-0.4984 0.22663,-0.098 1.06104,-0.3333 1.85424,-0.5221 0.79321,-0.1889 1.60318,-0.4282 1.79994,-0.5319 0.19676,-0.1037 0.58532,-0.1885 0.86346,-0.1885 0.27813,0 0.563,-0.093 0.63303,-0.206 0.07,-0.1133 0.44635,-0.206 0.83626,-0.206 0.38992,0 0.70894,-0.093 0.70894,-0.206 0,-0.1134 0.30501,-0.2061 0.67781,-0.2061 0.37279,0 1.21172,-0.1391 1.86429,-0.309 0.65257,-0.17 1.40827,-0.3091 1.67934,-0.3091 0.27106,0 0.54242,-0.08 0.603,-0.1782 0.0606,-0.098 0.46008,-0.2349 0.88777,-0.3041 0.4277,-0.069 1.24119,-0.223 1.80776,-0.3416 0.56657,-0.1187 1.30553,-0.2649 1.64211,-0.3249 0.33659,-0.06 1.44913,-0.2083 2.47232,-0.3295 1.02319,-0.121 3.36691,-0.2614 5.20828,-0.3119 1.84136,-0.051 3.34792,-0.1753 3.34792,-0.2774 0,-0.1022 0.11589,-0.1418 0.25754,-0.088 0.14164,0.054 2.57534,0.1928 5.4082,0.3093 2.83287,0.1164 6.07778,0.2908 7.21093,0.3877 1.13315,0.097 2.89468,0.3245 3.91451,0.5061 1.01982,0.1816 2.27144,0.4188 2.78135,0.5271 0.50992,0.1082 1.29798,0.2914 1.75123,0.4069 0.45326,0.1155 1.47309,0.3597 2.2663,0.5426 0.79319,0.183 1.74349,0.3818 2.11177,0.4419 0.36827,0.06 0.66958,0.1918 0.66958,0.2927 0,0.101 0.16891,0.1835 0.37536,0.1835 0.20644,0 0.78588,0.1282 1.28766,0.2849 0.50178,0.1567 1.32952,0.4045 1.83944,0.5509 0.50991,0.1463 1.01519,0.3426 1.12284,0.4362 0.10765,0.094 0.40349,0.1702 0.65743,0.1702 0.25394,0 0.51251,0.082 0.5746,0.1827 0.0621,0.1004 0.43703,0.2435 0.83321,0.3178 0.39617,0.074 1.11572,0.3297 1.59898,0.5676 0.48327,0.238 1.06409,0.5026 1.29072,0.5881 0.22663,0.086 0.94768,0.3968 1.60234,0.6918 0.65465,0.295 1.22794,0.5364 1.27397,0.5364 0.046,0 0.55342,0.292 1.12752,0.6489 l 1.04382,0.6488 v 6.4655 c 0,5.3669 -0.0493,6.4844 -0.28985,6.5768 -0.15943,0.062 -0.73888,-0.037 -1.28767,-0.2172 -0.54879,-0.1806 -1.18323,-0.4082 -1.40986,-0.5057 -0.22663,-0.098 -1.06104,-0.4289 -1.85424,-0.7364 -0.79321,-0.3075 -1.65079,-0.6429 -1.90575,-0.7452 -0.25496,-0.1023 -0.71852,-0.2896 -1.03013,-0.4161 -0.31162,-0.1265 -0.7152,-0.3042 -0.89684,-0.3949 -0.18164,-0.091 -0.76224,-0.2295 -1.2902,-0.3087 -0.52796,-0.079 -1.01062,-0.226 -1.07257,-0.3262 -0.062,-0.1003 -0.29386,-0.1823 -0.51533,-0.1823 -0.22148,0 -0.56368,-0.088 -0.76045,-0.196 -0.19675,-0.1078 -1.31176,-0.4322 -2.47777,-0.721 -1.16601,-0.2889 -2.34262,-0.5252 -2.61468,-0.5252 -0.27206,0 -0.55196,-0.093 -0.62198,-0.206 -0.07,-0.1133 -0.49397,-0.206 -0.94208,-0.206 -0.44811,0 -0.97573,-0.083 -1.17249,-0.1855 -0.19677,-0.102 -1.42394,-0.3335 -2.72706,-0.5143 -1.30312,-0.1809 -2.74015,-0.3737 -3.19341,-0.4286 -0.45326,-0.055 -1.93666,-0.2174 -3.29643,-0.3613 -1.35978,-0.1438 -4.65105,-0.2556 -7.31395,-0.2485 -2.66289,0.01 -5.95416,0.1315 -7.31394,0.2761 -1.35977,0.1447 -2.88953,0.3009 -3.39944,0.3473 -0.50991,0.047 -2.36415,0.2308 -4.12053,0.4098 -1.75638,0.1789 -3.3544,0.4108 -3.55117,0.5152 -0.19675,0.1044 -0.6384,0.1898 -0.98142,0.1898 -0.34301,0 -0.78465,0.083 -0.98142,0.1836 -0.19676,0.101 -0.91402,0.344 -1.59391,0.5401 -0.67989,0.1961 -1.5143,0.5445 -1.85424,0.7742 -0.33994,0.2298 -0.91939,0.7336 -1.28767,1.1196 -0.39833,0.4175 -0.66958,0.9155 -0.66958,1.2294 0,0.2901 0.31666,0.957 0.70369,1.4822 0.38702,0.525 0.96648,1.2047 1.28766,1.5103 0.32119,0.3056 1.02927,0.7923 1.57351,1.0816 0.54424,0.2894 1.12495,0.5261 1.29046,0.5261 0.16551,0 0.46193,0.087 0.65868,0.1929 0.19677,0.1062 1.0531,0.3324 1.90296,0.5028 0.84985,0.1703 2.19418,0.4103 2.98739,0.5334 0.79319,0.1229 2.92557,0.2771 4.7386,0.3424 1.81304,0.065 4.03813,0.096 4.94464,0.067 0.90652,-0.029 4.1978,-0.057 7.31395,-0.062 3.14073,-0.01 6.66128,0.1007 7.89961,0.2388 1.22863,0.1371 2.57295,0.2949 2.98738,0.3507 0.41444,0.056 1.35614,0.1905 2.09268,0.2991 0.73655,0.1084 1.8491,0.2877 2.47232,0.3982 0.62324,0.1106 1.9212,0.3549 2.88438,0.543 0.96317,0.1881 2.05339,0.3897 2.42272,0.4481 0.36933,0.058 0.72247,0.1885 0.78476,0.2893 0.0623,0.1008 0.29745,0.1833 0.52257,0.1833 0.22511,0 1.16995,0.238 2.09962,0.529 0.92966,0.2909 1.87572,0.6058 2.10235,0.6997 0.22663,0.094 0.94769,0.4122 1.60234,0.7072 0.65465,0.295 1.32682,0.5364 1.49369,0.5364 0.16688,0 0.30341,0.07 0.30341,0.1557 0,0.086 0.30131,0.287 0.66959,0.4474 0.36827,0.1604 1.31857,0.7155 2.11177,1.2336 0.7932,0.5182 2.18388,1.6936 3.0904,2.6121 0.90651,0.9186 1.83275,2.0317 2.0583,2.4736 0.22554,0.442 0.46494,0.8499 0.532,0.9066 0.067,0.057 0.28824,0.6129 0.4915,1.2362 0.20326,0.6232 0.45059,1.3461 0.54963,1.6064 0.099,0.2602 0.18006,1.6234 0.18006,3.0292 0,1.4057 -0.0843,2.7689 -0.18736,3.0292 -0.10304,0.2602 -0.34132,1.0295 -0.52952,1.7094 -0.18818,0.6798 -0.67172,1.8851 -1.07452,2.6783 -0.4028,0.7932 -1.29545,2.2302 -1.98366,3.1934 -0.68821,0.9632 -1.90507,2.3825 -2.70413,3.1542 -0.79906,0.7716 -2.24088,1.9389 -3.20406,2.594 -0.96318,0.6551 -2.3075,1.4473 -2.98739,1.7606 -0.67988,0.3131 -1.42158,0.6492 -1.6482,0.7466 -0.22664,0.098 -0.96834,0.3742 -1.64822,0.615 -0.67989,0.2407 -1.5143,0.516 -1.85424,0.6117 -0.33994,0.096 -1.40613,0.3763 -2.36931,0.6234 -0.96317,0.2472 -1.91221,0.5315 -2.10898,0.6318 -0.19675,0.1002 -0.54007,0.1822 -0.7629,0.1822 -0.22284,0 -0.61812,0.082 -0.87841,0.1826 -0.26028,0.1004 -1.07588,0.2967 -1.81243,0.4363 -0.73654,0.1394 -1.98815,0.3428 -2.78135,0.4519 -0.79321,0.1091 -1.99846,0.2753 -2.67835,0.3693 -0.67989,0.094 -2.20963,0.2724 -3.39944,0.3963 -1.1898,0.1241 -2.68684,0.2665 -3.32677,0.3164 -0.63991,0.05 -2.5405,0.1532 -4.22354,0.2296 -1.68303,0.076 -3.10642,0.092 -3.16308,0.036 z"
           id="path5"
           sodipodi:nodetypes="cccsssssssssssssssssssssssssssssssssssssssssscsscssssssssssssssssssssssssssssssssscsssssssssssssccccccccsssssssssssssssscssccscsscssssssssssssssssssssscsssssssssssssssssssccccscssscssssssssssssssssccssccssssssssssssssssssssssssssssscssssssssssssssssssssssssssssssscssssssssssssssssssssssssssssssscsssccssssssssssssssssssssssscssssssssssscssssssscssssssssssssssssssssssssssssssssssssssssscsssssssssssssssssssssssssssssssssssssssssssssssssssscsssssssssssssssssssscssssssssssssssssssscsssssssssssssssssssssssssssssssssssssssssss"
           inkscape:label="M S Logos" /><path
           style="display:inline;fill:#ffffff;fill-opacity:1;stroke-width:0.778683"
           d="m 291.85977,-2012.3621 -0.0519,-56.8879 -2.06027,-1.2736 c -1.13314,-0.7005 -2.80196,-1.7231 -3.70848,-2.2724 -0.90651,-0.5494 -2.06541,-1.2301 -2.57533,-1.5127 -0.50991,-0.2826 -1.1589,-0.6744 -1.44218,-0.8706 -0.28329,-0.1963 -1.62761,-1.0293 -2.98739,-1.8512 -1.35977,-0.8219 -2.75905,-1.6581 -3.10951,-1.8583 -0.35044,-0.2002 -1.40803,-0.8472 -2.35019,-1.4376 -0.94216,-0.5904 -1.99975,-1.2355 -2.3502,-1.4334 -0.35046,-0.198 -1.37889,-0.8078 -2.2854,-1.3551 -0.90652,-0.5473 -2.50652,-1.5345 -3.55555,-2.1937 -1.04903,-0.6592 -1.95992,-1.1986 -2.02419,-1.1986 -0.0642,0 -0.73572,-0.3975 -1.4921,-0.8833 -0.75639,-0.4858 -2.14496,-1.3435 -3.08572,-1.9057 -0.94075,-0.5624 -2.19236,-1.3089 -2.78135,-1.6589 -0.589,-0.3501 -2.51404,-1.5202 -4.27789,-2.6001 -1.76384,-1.0801 -4.82334,-2.9367 -6.79887,-4.1259 -1.97555,-1.1891 -5.35343,-3.2294 -7.5064,-4.534 -2.15298,-1.3045 -5.3979,-3.2765 -7.21094,-4.3822 -1.81303,-1.1058 -4.05522,-2.4615 -4.98265,-3.0127 -0.92742,-0.5513 -1.79001,-1.0023 -1.91688,-1.0023 -0.12686,0 -0.75874,0.2927 -1.40417,0.6505 -0.64544,0.3577 -3.44497,1.9468 -6.22118,3.5312 -2.7762,1.5844 -5.46485,3.114 -5.97476,3.3991 -0.50992,0.2851 -1.80789,1.027 -2.88438,1.6487 -1.07649,0.6216 -2.37445,1.3642 -2.88437,1.65 -0.50992,0.2859 -1.20526,0.6786 -1.5452,0.8727 -0.33994,0.1941 -1.22071,0.7001 -1.95725,1.1245 -0.73655,0.4243 -1.61731,0.9303 -1.95725,1.1244 -0.33995,0.1941 -1.03529,0.5893 -1.5452,0.8782 -0.50992,0.2889 -1.9006,1.0769 -3.0904,1.751 -1.18981,0.6741 -2.48777,1.4124 -2.88438,1.6406 -0.3966,0.2283 -2.15813,1.2312 -3.9145,2.2287 -1.75638,0.9976 -3.47155,1.9726 -3.81149,2.1666 -0.33995,0.1941 -3.90936,2.2294 -7.93203,4.5228 -4.02267,2.2935 -7.91657,4.5216 -8.65312,4.9514 -0.73654,0.4298 -2.63714,1.5176 -4.22354,2.4173 -1.58641,0.8998 -3.30158,1.8687 -3.81149,2.1532 -0.50992,0.2843 -1.94695,1.1014 -3.19342,1.8155 -1.24646,0.7143 -2.7762,1.59 -3.39944,1.946 l -1.13314,0.6475 -0.0519,57.0091 -0.0519,57.009 h 70.56485 70.56485 z m -122.89898,39.7365 c -0.1398,-0.1722 -0.23385,-14.7279 -0.28309,-43.8101 l -0.0737,-43.5521 0.41117,-0.2285 c 0.22615,-0.1257 0.64335,-0.3775 0.92712,-0.5597 0.28378,-0.182 0.93315,-0.564 1.44308,-0.8489 0.50991,-0.2847 1.94694,-1.1001 3.19341,-1.8118 1.24646,-0.7118 2.54442,-1.4514 2.88437,-1.6437 0.33994,-0.1923 3.49215,-2.0005 7.0049,-4.0184 3.51276,-2.0178 6.71132,-3.8502 7.10792,-4.0719 0.39661,-0.2218 1.32372,-0.7532 2.06027,-1.1809 0.73654,-0.4277 1.66366,-0.9621 2.06026,-1.1873 0.3966,-0.2254 1.38775,-0.7905 2.20254,-1.256 0.8148,-0.4655 1.78828,-1.0207 2.16328,-1.2338 0.37501,-0.213 2.58243,-1.48 4.90538,-2.8156 2.32295,-1.3354 5.19703,-2.9846 6.38682,-3.6647 1.18981,-0.6801 2.44142,-1.3965 2.78137,-1.5921 0.33994,-0.1956 1.22071,-0.703 1.95725,-1.1274 0.73655,-0.4244 1.71002,-0.9835 2.16328,-1.2423 0.45326,-0.2589 1.55435,-0.8884 2.44688,-1.3988 l 1.62278,-0.928 1.41822,0.909 c 0.78002,0.5 1.46876,0.9091 1.53053,0.9091 0.0618,0 0.8257,0.4467 1.69761,0.9927 0.87192,0.546 2.14158,1.324 2.82147,1.7289 0.67989,0.4048 1.56065,0.9178 1.95725,1.1398 0.3966,0.222 2.48958,1.4706 4.65106,2.7746 2.16149,1.304 4.01606,2.4071 4.12128,2.4515 0.10522,0.044 1.58165,0.9104 3.28097,1.9244 1.6993,1.0141 5.871,3.5016 9.27045,5.528 3.39943,2.0263 6.69071,3.991 7.31394,4.3661 0.62323,0.3751 1.45763,0.8652 1.85424,1.0891 0.3966,0.2239 2.3899,1.4058 4.42957,2.6267 2.03966,1.2208 4.12496,2.4539 4.63399,2.7402 0.50903,0.2863 1.41318,0.8325 2.00923,1.2138 l 1.08373,0.6932 -0.052,43.6195 -0.052,43.6195 -52.56273,0.052 c -41.89475,0.041 -52.60523,-4e-4 -52.7721,-0.206 z m 82.72342,-13.9586 12.82515,-10e-5 v -8.7561 -8.7561 h -26.22718 c -20.12422,0 -26.28472,-0.058 -26.47442,-0.2473 -0.1893,-0.1893 -0.24723,-5.5718 -0.24723,-22.972 v -22.7247 h -9.78627 -9.78626 v 31.6938 c 0,17.4316 0.0695,31.7682 0.15452,31.8593 0.085,0.091 10.63097,0.1065 23.43553,0.034 12.80455,-0.072 29.05232,-0.1312 36.10616,-0.1312 z"
           id="path6-0"
           sodipodi:nodetypes="ccssssssssssssssssssssssssssssssssssssssscccccccscssssssssssssssssscsssssssssssssscccsccccccssscccssssc"
           inkscape:label="L Logo" /><path
           style="display:inline;fill:#ffffff;fill-opacity:1;stroke-width:2.6255"
           d="m -236.93486,-1915.1468 v -13.1152 h 6.0429 c 7.04158,0 7.10473,0.016 9.1552,2.2296 1.62025,1.7504 2.16128,3.2006 2.18969,5.8732 0.048,4.1701 -1.39097,6.5532 -4.56654,7.5832 -0.63306,0.2081 -1.2333,0.4482 -1.33374,0.5398 -0.14406,0.1321 3.4378,6.2312 5.58251,9.5137 l 0.33214,0.5102 -1.7223,-0.06 -1.72191,-0.06 -3.15328,-5.1127 c -1.7347,-2.812 -3.42339,-5.5088 -3.75313,-5.9928 l -0.59904,-0.88 2.36657,-0.3961 c 1.30132,-0.2201 2.90477,-0.6446 3.56225,-0.9456 1.62906,-0.7459 2.16207,-1.8708 2.16207,-4.5651 1.2e-4,-2.0897 -0.28412,-2.8884 -1.50981,-4.1868 -1.32734,-1.4118 -1.41498,-1.4306 -6.31045,-1.3954 l -3.39018,0.023 v 11.7816 11.7814 h -1.66708 -1.66707 z m 27.11971,0 v -13.1152 h 7.00225 7.00224 v 1.3337 1.3337 h -5.33508 -5.33506 v 4.3346 4.3349 h 5.33506 5.33508 v 1.4449 1.4446 h -5.33508 -5.33506 v 4.7793 4.7794 h 5.33506 5.33508 v 1.2224 1.2226 h -7.00224 -7.00225 z m 21.40435,12.5039 c 0.14406,-0.7767 9.63736,-24.9619 9.89922,-25.2238 0.10405,-0.104 0.88516,-0.1641 1.72871,-0.1281 l 1.53383,0.068 4.85781,12.3373 c 2.67189,6.7854 4.90904,12.6122 4.97155,12.9485 0.11604,0.6107 0.11604,0.6111 -1.18969,0.6103 h -1.30333 l -1.4726,-3.8332 -1.4726,-3.8332 h -6.0579 -6.05755 l -1.47259,3.8332 -1.4726,3.8332 h -1.30334 c -1.30172,0 -1.30292,5e-4 -1.18888,-0.6103 z m 16.37606,-10.003 c -0.005,-0.092 -1.03241,-2.7676 -2.28212,-5.9464 -1.49582,-3.8039 -2.38137,-5.7797 -2.59066,-5.7797 -0.20809,0 -1.06363,1.9024 -2.49661,5.5574 -1.19849,3.0564 -2.23571,5.7324 -2.30534,5.9463 -0.12005,0.3642 0.20809,0.3842 4.77878,0.3842 2.6979,0 4.90119,-0.076 4.89603,-0.1641 z m 14.45837,-2.5007 v -13.1152 h 1.66707 1.66709 v 11.8926 11.8927 h 4.44597 4.446 v 1.2225 1.2225 h -6.11337 -6.11308 z m 22.22929,1.4446 v -11.6702 h -2.66789 -2.66749 v -1.4446 -1.445 h 7.00225 7.00221 v 1.445 1.4446 h -2.66748 -2.66789 v 11.6703 11.6704 h -1.66708 -1.66708 z m 49.57128,-1.4446 v -13.1152 h 6.04282 c 7.04163,0 7.10474,0.016 9.15525,2.2297 1.62025,1.7503 2.16128,3.2005 2.19009,5.8731 0.048,4.1701 -1.39096,6.5533 -4.56657,7.5832 -0.63307,0.2081 -1.23331,0.4482 -1.33375,0.5403 -0.14406,0.132 3.4382,6.2311 5.58255,9.5136 l 0.33213,0.5102 -1.7219,-0.06 -1.7223,-0.06 -3.15368,-5.1127 c -1.73431,-2.8119 -3.42339,-5.5087 -3.75313,-5.9927 l -0.59904,-0.88 2.36657,-0.3961 c 1.30132,-0.2201 2.90477,-0.6447 3.56225,-0.9456 1.62906,-0.7459 2.16207,-1.8708 2.16207,-4.5652 8e-5,-2.0896 -0.28412,-2.8884 -1.50981,-4.1867 -1.28293,-1.3634 -1.65268,-1.4618 -5.86583,-1.5538 l -3.83476,-0.084 v 11.9147 11.9146 h -1.66708 -1.66707 z m -25.6748,12.4774 c -2.08685,-0.6007 -4.07378,-1.7848 -5.66631,-3.377 -5.08767,-5.0859 -5.08527,-13.3382 0.005,-18.429 5.09343,-5.0934 13.34151,-5.0934 18.43499,0 2.53302,2.5331 3.78673,5.5848 3.78673,9.2176 0,2.3529 -0.44337,4.1666 -1.51341,6.2104 -1.57544,3.0045 -4.84897,5.5798 -8.18849,6.4412 -1.80714,0.467 -5.12597,0.4386 -6.85891,-0.06 z m 6.88324,-2.9156 c 4.19723,-1.4442 6.8371,-5.1791 6.8371,-9.6725 0,-4.525 -2.59385,-8.1691 -6.91678,-9.7174 -1.7199,-0.6158 -4.77389,-0.6158 -6.49372,0 -4.32304,1.5482 -6.91689,5.1924 -6.91689,9.7174 0,1.441 0.12805,2.3489 0.44818,3.2469 1.9524,5.4521 7.67725,8.2721 13.04399,6.4256 z m 37.82531,-17.8904 c -1.02762,-0.3682 -2.25051,-1.4879 -2.79473,-2.5635 -1.02723,-2.0292 -0.64587,-4.4212 0.96839,-6.0785 1.05763,-1.0856 2.15128,-1.4794 4.10999,-1.4794 2.34175,0 3.85317,0.9392 4.82792,3.0008 0.98881,2.0909 0.61505,4.3102 -0.996,5.9212 -0.63786,0.6375 -1.36976,1.1241 -1.91998,1.2766 -1.20089,0.3321 -3.14608,0.2961 -4.19579,-0.08 z m 3.9284,-1.0853 c 1.26891,-0.5306 2.59865,-2.4802 2.59865,-3.8124 0,-1.3313 -1.32974,-3.2817 -2.59865,-3.8119 -1.06803,-0.4482 -2.66788,-0.3722 -3.80035,0.176 -1.2397,0.5999 -2.26812,2.1206 -2.26812,3.3527 0,1.6354 1.13326,3.4449 2.55624,4.0804 0.86796,0.3841 2.60266,0.3922 3.51183,0.016 z m -3.84517,-3.6859 v -2.9056 h 2.07725 c 1.7303,0 2.13887,0.068 2.44539,0.4049 0.7203,0.7956 0.34015,2.1082 -0.7463,2.5647 l -0.63465,0.2681 0.87395,1.1465 c 0.48099,0.6306 0.87475,1.2097 0.87475,1.2861 0,0.076 -0.27611,0.1081 -0.60905,0.068 -0.45738,-0.056 -0.83074,-0.3923 -1.4866,-1.3482 -0.50901,-0.7419 -1.04163,-1.2786 -1.26931,-1.2786 -0.32014,0 -0.40497,0.2282 -0.45739,1.2786 -0.06,1.1325 -0.12406,1.2869 -0.56664,1.3493 -0.497,0.072 -0.5006,0.052 -0.5006,-2.8343 z m 3.1777,-0.6647 c 0.72669,-0.2761 0.95759,-0.9247 0.45738,-1.2893 -0.21608,-0.1561 -0.86915,-0.2841 -1.45699,-0.2841 -1.06364,0 -1.06924,0 -1.06924,0.7411 0,0.405 0.0681,0.8079 0.14806,0.8896 0.2161,0.216 1.28973,0.18 1.91879,-0.06 z m -173.38576,-8.7417 c -0.30012,-0.467 -0.34814,-168.884 -0.048,-169.247 0.21609,-0.2641 13.184,-0.3081 85.03256,-0.3081 h 84.7777 l -0.0561,84.8603 -0.056,84.8601 -84.7358,0.056 c -67.64049,0.048 -84.77214,-3e-4 -84.91584,-0.2241 z m 71.06516,-84.6382 v -62.9088 h -23.11848 -23.11842 v 62.9089 62.9087 h 23.11842 23.11848 z m 79.24128,62.7119 4.43981,-0.14 -31.53183,-30.3985 c -19.04142,-18.3571 -31.69693,-30.3986 -31.94856,-30.3986 -0.40497,0 -0.41937,0.7111 -0.41937,25.1943 0,13.8568 0.068,27.6111 0.14806,30.5652 l 0.14806,5.3711 27.36205,-0.03 c 15.04909,-0.016 29.35987,-0.092 31.80186,-0.1601 z m -37.62799,-64.0123 c 2.99002,-0.6691 5.66787,-1.6431 8.35885,-3.0405 8.64171,-4.487 14.65132,-12.4413 16.75845,-22.1813 0.40017,-1.8495 0.49021,-2.9776 0.49021,-6.1549 0,-3.1769 -0.084,-4.3054 -0.49021,-6.1549 -1.37975,-6.3772 -4.35925,-11.8897 -8.86184,-16.3943 -2.61107,-2.6123 -5.25338,-4.488 -8.74052,-6.2043 l -2.77713,-1.3674 -13.28328,-0.06 -13.28337,-0.06 v 31.1423 31.1424 l 9.83648,-0.092 c 9.0877,-0.084 10.00055,-0.1281 11.99253,-0.5743 z"
           id="path1-5"
           sodipodi:nodetypes="ccscsscscccssccsssccccccccccccccccccccccccccccccccccccssscccccccscccssssscccccccccccccccccccccccccccccccccsccscscccssccsssscccccccscssssccssscscscsssssscccsscssccccscscsscssscccccsscccccscccccccccccccccccssscccccccsscsscccccccc" /></g></g><path
       style="fill:#ffffff;stroke-width:0.0127687;fill-opacity:1"
       d="m 12.778638,42.490861 -0.05655,-0.05662 v -0.896957 -0.896957 l 0.05662,-0.05655 0.05662,-0.05655 h 1.231416 1.231417 l 0.05655,0.05662 0.05655,0.05662 v 0.896957 0.896958 l -0.05662,0.05655 -0.05662,0.05655 h -1.231416 -1.231417 z m 2.409659,-0.883087 v -0.713359 l -0.0074,0.0064 -0.0074,0.0064 -0.539038,0.489492 -0.539036,0.48949 -0.01375,0.01315 -0.01375,0.01314 -0.558402,-0.507697 -0.558402,-0.507695 -0.003,-0.0012 -0.003,-0.0012 v 0.713118 0.713117 h 1.121619 1.121618 z m -0.649467,-0.42555 0.468724,-0.426075 0.0012,-0.0029 0.0012,-0.0029 h -0.943697 -0.943634 l 0.01176,0.01157 0.01177,0.01156 0.459457,0.417493 0.459458,0.417492 0.0026,3e-6 0.0026,2e-6 z"
       id="path10" /><path
       style="fill:#ffffff;stroke-width:0.0169708;fill-opacity:1"
       d="m 14.857607,39.226499 -0.03591,-0.0012 -0.06287,-0.0049 -0.06286,-0.0049 -0.07858,-0.01124 -0.07858,-0.01124 -0.06287,-0.0131 -0.06286,-0.0131 -0.07788,-0.02231 -0.07788,-0.02231 -0.05908,-0.02087 -0.05907,-0.02087 -0.0741,-0.03153 -0.0741,-0.03153 -0.04491,-0.02242 -0.04491,-0.02242 -0.06287,-0.03626 -0.06286,-0.03626 -0.05838,-0.03863 -0.05838,-0.03862 -0.05599,-0.04194 -0.05599,-0.04194 -0.05851,-0.05036 -0.05851,-0.05036 -0.07043,-0.07138 -0.07043,-0.07138 -0.04368,-0.05163 -0.04368,-0.05163 -0.04331,-0.05838 -0.04331,-0.05838 -0.03475,-0.05331 -0.03475,-0.05331 -0.03514,-0.0612 -0.03514,-0.0612 -0.02495,-0.0498 -0.02495,-0.04981 -0.0295,-0.07009 -0.0295,-0.07009 -0.02015,-0.05713 -0.02015,-0.05713 -0.02236,-0.07892 -0.02236,-0.07892 -0.01095,-0.05163 -0.01096,-0.05163 -0.01148,-0.0741 -0.01148,-0.0741 -0.0071,-0.0741 -0.0071,-0.0741 -3.4e-5,-0.116745 -3.4e-5,-0.116744 0.0049,-0.06215 0.0049,-0.06216 0.0083,-0.03284 0.0083,-0.03284 0.01127,-0.02176 0.01127,-0.02176 0.01719,-0.02234 0.01719,-0.02234 0.0257,-0.02072 0.0257,-0.02072 0.02442,-0.01196 0.02442,-0.01196 0.02983,-0.0069 0.02983,-0.0069 0.294872,0.0015 0.29487,0.0015 0.02021,0.0071 0.02021,0.0071 0.03144,0.01724 0.03144,0.01724 0.03152,0.03158 0.03151,0.03157 0.01624,0.03368 0.01625,0.03368 0.0944,0.260431 0.0944,0.260432 0.0094,0.03084 0.0094,0.03085 0.0026,0.02977 0.0026,0.02977 -0.0069,0.03514 -0.0069,0.03514 -0.01559,0.03239 -0.01558,0.03239 -0.01835,0.02306 -0.01835,0.02305 -0.0302,0.0221 -0.0302,0.02209 -0.06188,0.03698 -0.06188,0.03699 0.01,0.01647 0.01,0.01647 0.02125,0.0346 0.02125,0.03459 0.03119,0.04398 0.03119,0.04398 0.0342,0.0413 0.03419,0.04131 0.05507,0.05526 0.05507,0.05526 0.0442,0.03712 0.04421,0.03711 0.04561,0.03233 0.04561,0.03233 0.04604,0.02819 0.04604,0.02819 0.0033,-1.3e-5 0.0033,-1.5e-5 0.04491,-0.07508 0.04491,-0.07508 0.03368,-0.03397 0.03368,-0.03397 0.02919,-0.01432 0.02919,-0.01432 0.02676,-0.0068 0.02677,-0.0068 h 0.03897 0.03897 l 0.03754,0.01094 0.03754,0.01095 0.260392,0.09478 0.260391,0.09478 0.03372,0.01614 0.03371,0.01614 0.03236,0.03276 0.03236,0.03276 0.01754,0.03509 0.01752,0.03509 0.0062,0.02469 0.0062,0.02469 v 0.285127 0.285128 l -0.0079,0.02919 -0.0079,0.02919 -0.01429,0.02846 -0.01429,0.02845 -0.02271,0.02593 -0.0227,0.02592 -0.02694,0.01843 -0.02694,0.01844 -0.02184,0.0095 -0.02183,0.0095 -0.03878,0.0062 -0.03878,0.0062 -0.07634,0.0045 -0.07634,0.0045 -0.04715,-8.22e-4 -0.04715,-8.23e-4 z m 0.263799,-0.273745 0.01685,-0.0027 v -0.250479 -0.250479 l -0.0056,-0.0022 -0.0056,-0.0022 -0.261167,-0.09487 -0.261168,-0.09487 h -0.0082 -0.0082 l -0.07177,0.120113 -0.07177,0.120112 -0.02247,0.0226 -0.02247,0.02261 -0.02408,0.0077 -0.02408,0.0077 -0.01857,-5e-5 -0.01857,-5.1e-5 -0.02044,-0.0062 -0.02044,-0.0062 -0.0514,-0.02574 -0.0514,-0.02574 -0.06287,-0.03724 -0.06287,-0.03725 -0.05781,-0.04098 -0.05781,-0.04098 -0.04759,-0.03908 -0.04759,-0.03908 -0.07421,-0.07424 -0.0742,-0.07424 -0.04498,-0.05597 -0.04498,-0.05597 -0.03853,-0.05613 -0.03853,-0.05612 -0.03174,-0.05387 -0.03174,-0.05387 -0.03063,-0.06238 -0.03062,-0.06238 1.86e-4,-0.03415 1.85e-4,-0.03415 0.01211,-0.02343 0.01211,-0.02343 0.01546,-0.01546 0.01545,-0.01545 0.118127,-0.07062 0.118126,-0.07062 0.0053,-0.005 0.0053,-0.0049 -0.09915,-0.272817 -0.09915,-0.272816 -0.249735,0.0012 -0.249736,0.0012 -0.0037,0.02469 -0.0037,0.02469 -5.72e-4,0.134705 -5.7e-4,0.134707 0.0057,0.05613 0.0057,0.05612 0.01112,0.07142 0.01112,0.07143 0.0093,0.043 0.0093,0.043 0.01763,0.06293 0.01763,0.06293 0.01961,0.05621 0.0196,0.05621 0.02336,0.05603 0.02336,0.05603 0.02929,0.05838 0.02929,0.05838 0.02657,0.04608 0.02657,0.04608 0.02981,0.04597 0.02981,0.04597 0.03808,0.05163 0.03808,0.05163 0.04828,0.05612 0.04828,0.05612 0.06664,0.06541 0.06665,0.0654 0.0404,0.03381 0.04041,0.03381 0.04712,0.0353 0.04712,0.0353 0.04718,0.03129 0.04717,0.03129 0.04939,0.02892 0.0494,0.02892 0.0565,0.02833 0.0565,0.02831 0.05532,0.02311 0.05532,0.02311 0.04983,0.01788 0.04983,0.01788 0.07634,0.02173 0.07633,0.02173 0.04715,0.0094 0.04715,0.0094 0.05613,0.0088 0.05612,0.0088 0.05612,0.0048 0.05613,0.0048 0.01572,0.0018 0.01572,0.0018 0.134706,-0.002 0.134705,-0.002 z"
       id="path11"
       sodipodi:nodetypes="cccccccccccccccccccccccccccccccccccccccccccccccccccccccccccccccccccccccccccccccccccccccccccccccccccccccccccccccccccccccccccccccccccccccccccccccccccccccccccccccccccccccccccccccccccccccccccccccccccccccccccccccccccccccccccccccccccccccccccccccccccccccccccccccc" /><path
       style="fill:#ffffff;stroke-width:0.0190348;fill-opacity:1"
       d="m 13.987151,46.555727 -0.02266,-0.002 -0.04533,-0.0053 -0.04533,-0.0053 -0.06531,-0.01277 -0.06531,-0.01277 -0.05658,-0.01715 -0.05658,-0.01716 -0.05182,-0.02065 -0.05182,-0.02065 -0.06938,-0.03521 -0.06937,-0.03521 -0.06213,-0.04149 -0.06213,-0.04149 -0.03976,-0.03227 -0.03976,-0.03227 -0.05464,-0.05301 -0.05464,-0.05301 -0.04106,-0.04962 -0.04106,-0.04962 -0.03677,-0.05361 -0.03677,-0.05362 -0.02944,-0.05289 -0.02945,-0.05289 -0.02377,-0.05288 -0.02377,-0.05288 -0.02236,-0.06683 -0.02237,-0.06684 -0.01462,-0.06663 -0.01462,-0.06664 -0.0082,-0.06547 -0.0082,-0.06547 v -0.09821 -0.09821 l 0.0081,-0.065 0.0081,-0.065 0.01034,-0.04832 0.01034,-0.04832 0.01253,-0.04505 0.01253,-0.04506 0.01997,-0.05427 0.01997,-0.05428 0.02532,-0.05428 0.02532,-0.05427 0.0376,-0.06295 0.0376,-0.06295 0.03636,-0.04869 0.03636,-0.04869 0.04512,-0.05134 0.04512,-0.05133 0.04553,-0.04106 0.04554,-0.04105 0.04281,-0.03329 0.04281,-0.03328 0.05037,-0.03289 0.05036,-0.03289 0.05301,-0.02803 0.05301,-0.02803 0.05412,-0.02267 0.05412,-0.02267 0.0641,-0.02053 0.0641,-0.02053 0.07303,-0.01457 0.07303,-0.01456 0.05947,-0.0059 0.05946,-0.0059 0.109252,0.0025 0.109253,0.0025 0.05792,0.0087 0.05792,0.0087 0.0758,0.01918 0.07579,0.01918 0.0627,0.02343 0.06271,0.02343 0.06547,0.03226 0.06547,0.03225 0.05534,0.03487 0.05535,0.03487 0.05792,0.04462 0.05792,0.04462 0.06351,0.06295 0.06351,0.06295 0.04067,0.05141 0.04067,0.05141 0.03242,0.04932 0.03241,0.04932 0.02997,0.05539 0.02996,0.05539 0.02071,0.04784 0.02072,0.04784 0.01778,0.05143 0.01778,0.05144 0.015,0.06188 0.015,0.06188 0.0079,0.05053 0.0079,0.05053 0.0054,0.07537 0.0054,0.07537 -0.0031,0.06043 -0.0031,0.06043 -0.0074,0.06001 -0.0074,0.06 -0.01025,0.04827 -0.01026,0.04828 -0.01731,0.05911 -0.0173,0.05911 -0.02057,0.05164 -0.02057,0.05163 -0.03521,0.06937 -0.03521,0.06938 -0.04116,0.0616 -0.04117,0.0616 -0.02981,0.03777 -0.02981,0.03777 -0.07595,0.07578 -0.07595,0.07578 -0.05884,0.04398 -0.05885,0.04398 -0.05275,0.0323 -0.05275,0.0323 -0.03974,0.01998 -0.03974,0.01998 -0.05485,0.02343 -0.05485,0.02343 -0.06576,0.01976 -0.06576,0.01975 -0.0496,0.01033 -0.0496,0.01033 -0.05617,0.0076 -0.05617,0.0076 -0.09317,0.0018 -0.09317,0.0018 z m -0.194423,-0.307186 -0.03322,-0.055 -0.03952,-0.08058 -0.03952,-0.08058 -0.02485,-0.06295 -0.02485,-0.06295 -0.01772,-0.05539 -0.01772,-0.0554 -0.0088,-0.03273 -0.0088,-0.03273 -0.0036,-0.0041 -0.0036,-0.0041 -0.08249,0.02758 -0.08249,0.02758 -0.0554,0.02364 -0.05539,0.02364 -0.05921,0.03013 -0.05921,0.03013 0.0035,0.0059 0.0035,0.0059 0.03381,0.04029 0.03381,0.04029 0.037,0.03562 0.037,0.03562 0.03022,0.02534 0.03022,0.02534 0.03732,0.0265 0.03732,0.0265 0.03822,0.02264 0.03822,0.02264 0.04029,0.02031 0.04029,0.02032 0.05288,0.02005 0.05288,0.02005 0.05037,0.01381 0.05036,0.01383 0.0013,-9.82e-4 0.0013,-9.82e-4 z m 0.674806,0.0132 0.04416,-0.01627 0.04619,-0.02148 0.0462,-0.02148 0.04533,-0.02678 0.04533,-0.02679 0.03526,-0.02519 0.03526,-0.02519 0.0277,-0.02281 0.0277,-0.0228 0.04457,-0.04301 0.04456,-0.043 0.03224,-0.03852 0.03224,-0.03852 v -0.0027 -0.0028 l -0.04155,-0.02257 -0.04155,-0.02258 -0.06969,-0.03081 -0.06969,-0.03081 -0.08322,-0.02779 -0.08322,-0.02779 -0.0064,0.0025 -0.0064,0.0025 -0.0064,0.02682 -0.0064,0.02682 -0.0213,0.06547 -0.0213,0.06547 -0.02614,0.06547 -0.02614,0.06547 -0.0372,0.07554 -0.03719,0.07554 -0.03301,0.05467 -0.03301,0.05467 v 0.0013 0.0013 l 0.0494,-0.01375 0.04939,-0.01376 z m -0.351238,-0.04956 0.03596,-0.05438 0.03602,-0.0637 0.03602,-0.0637 0.03272,-0.07358 0.03272,-0.07359 0.02952,-0.0891 0.02952,-0.0891 0.0032,-0.01553 0.0032,-0.01554 -0.04919,-0.006 -0.04919,-0.006 -0.08908,-0.0048 -0.08908,-0.0048 -0.09236,0.0049 -0.09236,0.0049 -0.04281,0.0053 -0.04281,0.0053 -0.006,0.0022 -0.006,0.0022 0.01038,0.03679 0.01038,0.03679 0.02271,0.06547 0.02271,0.06547 0.02735,0.06295 0.02735,0.06295 0.02738,0.05144 0.02738,0.05144 0.02827,0.04676 0.02827,0.04676 0.02236,0.03148 0.02236,0.03148 h 0.0035 0.0035 z m -0.972722,-0.56318 0.08058,-0.04091 0.07554,-0.03036 0.07554,-0.03035 0.06295,-0.02001 0.06295,-0.02001 0.01535,-0.0033 0.01536,-0.0033 -0.0069,-0.05396 -0.0069,-0.05396 -0.0035,-0.09481 -0.0035,-0.09481 0.0036,-0.09405 0.0036,-0.09405 0.0069,-0.05443 0.0069,-0.05443 -0.0028,-0.0018 -0.0028,-0.0018 -0.05519,-0.01636 -0.05519,-0.01636 -0.03799,-0.01389 -0.03799,-0.01389 -0.03923,-0.01561 -0.03922,-0.01561 -0.05429,-0.0248 -0.05429,-0.0248 -0.04577,-0.02487 -0.04576,-0.02486 -0.0047,0.0031 -0.0047,0.0031 -0.01812,0.04281 -0.01812,0.04281 -0.01535,0.04784 -0.01534,0.04784 -0.01004,0.04281 -0.01004,0.04281 -0.0085,0.05036 -0.0085,0.05037 -4.25e-4,0.108279 -4.24e-4,0.108281 0.0068,0.04533 0.0068,0.04533 0.01253,0.05715 0.01253,0.05715 0.0198,0.05742 0.0198,0.05741 0.01585,0.03543 0.01584,0.03543 0.003,-0.0013 0.0029,-0.0013 z m 1.967603,0.0094 0.0154,-0.03399 0.02183,-0.06548 0.02182,-0.06548 0.01259,-0.06295 0.01259,-0.06295 0.0053,-0.05215 0.0053,-0.05215 v -0.05937 -0.05937 l -0.0053,-0.05215 -0.0053,-0.05215 -0.01259,-0.06295 -0.01259,-0.06295 -0.02186,-0.06547 -0.02186,-0.06547 -0.01609,-0.03592 -0.0161,-0.03591 -0.07187,0.03715 -0.07187,0.03716 -0.07,0.02956 -0.07,0.02956 -0.0705,0.02319 -0.0705,0.02319 -0.02393,0.0063 -0.02392,0.0063 9e-6,0.0079 1.1e-5,0.0079 0.008,0.07303 0.008,0.07303 v 0.135979 0.13598 l -0.008,0.07303 -0.008,0.07303 -1.1e-5,0.0082 -9e-6,0.0082 0.07428,0.02367 0.07428,0.02366 0.07695,0.03028 0.07695,0.03028 0.08168,0.04177 0.08169,0.04178 0.0041,6.01e-4 0.0041,6.01e-4 z m -1.257488,-0.21816 0.04029,-0.0048 0.130944,-0.003 0.130943,-0.003 0.0705,0.0056 0.0705,0.0056 0.04896,0.0061 0.04896,0.0061 0.0022,-0.0023 0.0022,-0.0023 0.0057,-0.04533 0.0057,-0.04533 0.0029,-0.103243 0.0029,-0.103245 -0.0059,-0.07303 -0.0059,-0.07303 -0.0031,-0.02697 -0.0031,-0.02697 -0.02065,0.0033 -0.02065,0.0033 -0.0705,0.0079 -0.0705,0.0079 h -0.138499 -0.138498 l -0.0705,-0.0079 -0.0705,-0.0079 -0.02334,-0.0033 -0.02334,-0.0033 -0.0027,0.02201 -0.0027,0.02201 -0.0065,0.104469 -0.0065,0.104467 0.0064,0.0995 0.0064,0.0995 0.0029,0.02456 0.0029,0.02457 0.03075,-0.0033 0.03074,-0.0033 z m 0.437442,-0.701782 0.05972,-0.0074 0.0022,-0.0022 0.0022,-0.0022 -0.01789,-0.05904 -0.0179,-0.05904 -0.02066,-0.05614 -0.02066,-0.05614 -0.02909,-0.06399 -0.02909,-0.06398 -0.02893,-0.05197 -0.02893,-0.05197 -0.0422,-0.06421 -0.0422,-0.06421 h -0.0023 -0.0023 l -0.03465,0.05163 -0.03465,0.05163 -0.03181,0.05524 -0.03181,0.05524 -0.02638,0.05555 -0.02638,0.05555 -0.01995,0.05036 -0.01995,0.05037 -0.01291,0.03777 -0.01292,0.03777 -0.01297,0.04484 -0.01297,0.04485 0.0015,0.0016 0.0015,0.0016 0.03504,0.0053 0.03504,0.0053 0.05288,0.0046 0.05288,0.0046 0.128425,-0.002 0.128426,-0.002 z m -0.711918,-0.06496 1e-6,-0.006 0.02049,-0.06799 0.02049,-0.06799 0.02789,-0.07303 0.02788,-0.07303 0.04173,-0.08561 0.04174,-0.08561 0.03267,-0.0554 0.03267,-0.05539 -0.0013,-0.0016 -0.0013,-0.0016 -0.04718,0.01312 -0.04718,0.01313 -0.04533,0.01691 -0.04533,0.01691 -0.0438,0.02022 -0.0438,0.02023 -0.04434,0.02614 -0.04434,0.02614 -0.03995,0.02809 -0.03995,0.02809 -0.05403,0.0467 -0.05402,0.0467 -0.0483,0.0562 -0.04829,0.0562 v 0.0034 0.0034 l 0.08436,0.04098 0.08436,0.04097 0.04029,0.01607 0.04029,0.01607 0.07303,0.02395 0.07303,0.02395 0.0038,-0.0023 0.0038,-0.0023 z m 1.051855,-0.0065 0.04353,-0.0131 0.08303,-0.03277 0.08303,-0.03277 0.058,-0.02924 0.05799,-0.02924 0.0089,-0.0068 0.0089,-0.0068 -0.03327,-0.04026 -0.03328,-0.04026 -0.02098,-0.02194 -0.02098,-0.02194 -0.04784,-0.04123 -0.04784,-0.04123 -0.04281,-0.03049 -0.04281,-0.03048 -0.03526,-0.02031 -0.03526,-0.02032 -0.04281,-0.02146 -0.04281,-0.02146 -0.05107,-0.01919 -0.05107,-0.01919 -0.0456,-0.01281 -0.0456,-0.01281 h -0.0052 -0.0052 l 0.0282,0.04649 0.0282,0.04649 0.02932,0.0555 0.02932,0.0555 0.02761,0.06347 0.02761,0.06347 0.02259,0.06243 0.02259,0.06243 0.01582,0.05539 0.01582,0.05539 0.0022,0.0063 0.0022,0.0063 h 0.0058 0.0058 z"
       id="path12" /><text
       xml:space="preserve"
       style="font-style:normal;font-variant:normal;font-weight:normal;font-stretch:normal;font-size:3.175px;font-family:Arial;-inkscape-font-specification:Arial;text-align:start;writing-mode:lr-tb;direction:ltr;text-anchor:start;fill:#000000;fill-opacity:1;stroke:none;stroke-width:0.455001;stroke-dasharray:0.455001, 0.455001;stroke-dashoffset:0;stroke-opacity:1"
       x="75.815369"
       y="16.602594"
       id="text15"><tspan
         sodipodi:role="line"
         id="tspan15"
         style="stroke-width:0.455" /></text><g
       id="g2"
       style="display:none"><g
         id="g18"
         style="display:inline"><rect
           style="fill:#000000;fill-opacity:1;stroke:none;stroke-width:0.455001;stroke-dasharray:0.455001, 0.455001;stroke-dashoffset:0;stroke-opacity:1"
           id="rect16"
           width="8.7456236"
           height="7.2555456"
           x="83.329376"
           y="3.175" /><rect
           style="fill:#000000;fill-opacity:1;stroke:none;stroke-width:0.455001;stroke-dasharray:0.455001, 0.455001;stroke-dashoffset:0;stroke-opacity:1"
           id="rect16-2"
           width="8.7456236"
           height="7.2555456"
           x="83.329384"
           y="46.719452" /><rect
           style="fill:#000000;fill-opacity:1;stroke:none;stroke-width:0.455001;stroke-dasharray:0.455001, 0.455001;stroke-dashoffset:0;stroke-opacity:1"
           id="rect16-4"
           width="8.7456236"
           height="7.2555456"
           x="3.175"
           y="3.175" /><rect
           style="fill:#000000;fill-opacity:1;stroke:none;stroke-width:0.455001;stroke-dasharray:0.455001, 0.455001;stroke-dashoffset:0;stroke-opacity:1"
           id="rect16-0"
           width="8.7456236"
           height="7.2555456"
           x="2.9475"
           y="46.946953" /><rect
           style="fill:none;fill-opacity:1;stroke:#fe0013;stroke-width:0.455001;stroke-dasharray:0.455001, 0.455001;stroke-dashoffset:0;stroke-opacity:1"
           id="rect18"
           width="71.40876"
           height="36.288906"
           x="11.920624"
           y="10.430546" /></g><rect
         style="fill:#000000;fill-opacity:1;stroke:none;stroke-width:0.455001;stroke-dasharray:0.455001, 0.455001;stroke-opacity:1"
         id="rect2"
         width="14.595017"
         height="2.6934187"
         x="68.734367"
         y="44.026031" /><rect
         style="fill:#000000;fill-opacity:1;stroke:none;stroke-width:0.455001;stroke-dasharray:0.455001, 0.455001;stroke-opacity:1"
         id="rect2-8"
         width="14.595017"
         height="2.6934187"
         x="68.73436"
         y="10.430546" /></g></g></svg>
